<svg width="12" height="13" viewBox="0 0 12 13" fill="none" xmlns="http://www.w3.org/2000/svg">
<rect opacity="0.103723" y="0.5" width="12" height="12" rx="2" fill="#12B886"/>
<path fill-rule="evenodd" clip-rule="evenodd" d="M9 6.5C9 6.79224 8.76282 7.02941 8.47059 7.02941H6.52941V8.97059C6.52941 9.26282 6.29224 9.5 6 9.5C5.70776 9.5 5.47059 9.26282 5.47059 8.97059V7.02941H3.52941C3.23718 7.02941 3 6.79224 3 6.5C3 6.20776 3.23718 5.97059 3.52941 5.97059H5.47059V4.02941C5.47059 3.73718 5.70776 3.5 6 3.5C6.29224 3.5 6.52941 3.73718 6.52941 4.02941V5.97059H8.47059C8.76282 5.97059 9 6.20776 9 6.5Z" fill="#12B886"/>
</svg>
