<?xml version="1.0" standalone="no"?><!DOCTYPE svg PUBLIC "-//W3C//DTD SVG 1.1//EN" "http://www.w3.org/Graphics/SVG/1.1/DTD/svg11.dtd"><svg t="1748070227205" class="icon" viewBox="0 0 1024 1024" version="1.1" xmlns="http://www.w3.org/2000/svg" p-id="17254" xmlns:xlink="http://www.w3.org/1999/xlink" width="200" height="200"><path d="M492.307692 301.607385c19.219692 0 34.816 15.596308 34.816 34.816v139.421538a34.816 34.816 0 0 1-69.632 0V336.344615c0-19.219692 15.596308-34.816 34.816-34.816z m47.419077 313.501538a46.473846 46.473846 0 0 1-46.473846 46.473846 46.631385 46.631385 0 0 1-46.710154-46.473846c0-25.6 20.558769-46.473846 46.237539-46.473846h0.472615a46.473846 46.473846 0 0 1 46.473846 46.473846z m335.793231-167.699692c0 318.857846-298.141538 448.748308-383.212308 479.232C407.236923 896.157538 109.095385 766.267077 109.095385 447.409231V202.279385c203.697231-42.535385 287.428923-81.132308 383.92123-128.787693 90.820923 45.528615 177.230769 85.858462 382.503385 128.787693V447.409231z m41.747692-307.672616C688.443077 93.971692 609.201231 53.956923 508.691692 3.387077a38.045538 38.045538 0 0 0-32.610461 0.630154C374.468923 54.508308 294.045538 94.365538 67.347692 139.736615A34.816 34.816 0 0 0 39.384615 173.843692V447.409231c0 382.503385 368.088615 524.603077 441.895385 549.179077a34.422154 34.422154 0 0 0 22.055385 0c73.806769-24.576 441.895385-166.675692 441.895384-549.179077V173.843692a34.816 34.816 0 0 0-28.041846-34.107077z" fill="#FFA622" p-id="17255"></path></svg>