<?xml version="1.0" standalone="no"?><!DOCTYPE svg PUBLIC "-//W3C//DTD SVG 1.1//EN" "http://www.w3.org/Graphics/SVG/1.1/DTD/svg11.dtd"><svg t="1748070216443" class="icon" viewBox="0 0 1024 1024" version="1.1" xmlns="http://www.w3.org/2000/svg" p-id="17112" xmlns:xlink="http://www.w3.org/1999/xlink" width="200" height="200"><path d="M539.647107 638.358305a46.472345 46.472345 0 0 0-46.472345-46.472344h-0.4726a46.236045 46.236045 0 0 0-46.157278 46.472344c0 25.67794 21.030705 46.472345 46.629878 46.472345a46.472345 46.472345 0 0 0 46.472345-46.472345m-14.414304-110.74596c0.393833-0.787667 4.095868-9.294469 29.458741-26.15054 45.763445-30.403941 66.164016-74.040685 57.578447-122.954797a122.954797 122.954797 0 0 0-98.14329-98.222057c-36.153909-6.301335-72.465351 3.386967-100.191225 26.62314a121.69453 121.69453 0 0 0-43.557977 93.417289 34.814875 34.814875 0 0 0 69.62975 0 52.143546 52.143546 0 0 1 61.989382-51.355879 52.77368 52.77368 0 0 1 41.746343 41.58881c2.363001 13.232803 1.969167 33.160775-27.56834 52.77368-20.006738 13.390337-47.496312 34.184742-56.869547 61.989382a34.342275 34.342275 0 0 0 32.845708 45.290844 35.523775 35.523775 0 0 0 33.082008-22.999872M109.029634 202.305932V447.427858c0 318.847545 298.131907 448.73381 383.278695 479.216518 85.068021-30.482707 383.199927-160.368973 383.199927-479.216518V202.305932C670.163505 159.299321 583.677684 119.049545 492.938462 73.5224 396.528038 121.176245 312.720284 159.771921 109.029634 202.305932M492.308329 998.400827a34.421042 34.421042 0 0 1-11.027337-1.811634C407.476608 972.013987 39.399884 829.918886 39.399884 447.427858V173.871158c0-16.541004 11.65747-30.876541 27.962174-34.105975C294.05258 94.395572 374.3946 54.539629 476.161158 3.971416A38.044309 38.044309 0 0 1 508.849333 3.42005c100.348758 50.568212 179.588044 90.581689 408.3265 136.266366a34.736109 34.736109 0 0 1 27.962173 34.184742V447.427858c0 382.491027-367.997957 524.586129-441.802341 549.161335a34.499808 34.499808 0 0 1-11.027336 1.811634" fill="#848E9C" p-id="17113"></path></svg>