<?xml version="1.0" standalone="no"?><!DOCTYPE svg PUBLIC "-//W3C//DTD SVG 1.1//EN" "http://www.w3.org/Graphics/SVG/1.1/DTD/svg11.dtd"><svg t="1748070249343" class="icon" viewBox="0 0 1024 1024" version="1.1" xmlns="http://www.w3.org/2000/svg" p-id="17535" xmlns:xlink="http://www.w3.org/1999/xlink" width="200" height="200"><path d="M471.04 616.605538l185.816615-185.895384a34.816 34.816 0 1 0-49.309538-49.230769L446.385231 542.641231 378.092308 474.348308a34.816 34.816 0 1 0-49.23077 49.309538l92.947693 92.947692a34.894769 34.894769 0 0 0 49.230769 0M109.095385 202.279385V447.409231c0 318.857846 298.141538 448.748308 383.212307 479.310769 85.070769-30.562462 383.212308-160.452923 383.212308-479.310769V202.279385C670.168615 159.271385 583.837538 119.020308 493.095385 73.491692 396.524308 121.147077 312.713846 159.744 109.095385 202.279385M492.307692 998.4a34.422154 34.422154 0 0 1-11.027692-1.811692C407.473231 972.012308 39.384615 829.912615 39.384615 447.409231V173.843692c0-16.541538 11.736615-30.877538 28.041847-34.185846C294.045538 94.365538 374.468923 54.508308 476.238769 4.017231a38.045538 38.045538 0 0 1 32.531693-0.630154c100.430769 50.569846 179.751385 90.584615 408.418461 136.270769a34.894769 34.894769 0 0 1 28.041846 34.185846V447.409231c0 382.503385-368.088615 524.603077-441.895384 549.179077a34.422154 34.422154 0 0 1-11.027693 1.811692" fill="#37C882" p-id="17536"></path></svg>