<?xml version="1.0" standalone="no"?><!DOCTYPE svg PUBLIC "-//W3C//DTD SVG 1.1//EN" "http://www.w3.org/Graphics/SVG/1.1/DTD/svg11.dtd"><svg t="1748070261395" class="icon" viewBox="0 0 1024 1024" version="1.1" xmlns="http://www.w3.org/2000/svg" p-id="17677" xmlns:xlink="http://www.w3.org/1999/xlink" width="200" height="200"><path d="M509.085538 357.612308v115.554461c0 19.219692 15.596308 34.894769 34.816 34.894769h50.806154L475.451077 640.393846V524.839385a34.816 34.816 0 0 0-34.816-34.816H389.907692l119.177846-132.489847zM279.788308 538.860308c5.671385 12.603077 18.116923 20.716308 31.822769 20.716307h94.208v171.638154a34.894769 34.894769 0 0 0 60.731077 23.315693l232.290461-258.12677a34.816 34.816 0 0 0-25.993846-58.131692H578.796308V266.791385a34.737231 34.737231 0 0 0-60.652308-23.394462l-232.369231 258.126769a34.816 34.816 0 0 0-5.907692 37.415385z m595.731692-91.529846c0 318.857846-298.141538 448.748308-383.212308 479.232C407.236923 896.157538 109.095385 766.267077 109.095385 447.409231V202.279385c203.618462-42.535385 287.428923-81.132308 383.842461-128.787693 90.742154 45.528615 177.152 85.779692 382.582154 128.787693V447.409231z m41.747692-307.672616C688.285538 93.892923 609.043692 53.878154 508.691692 3.387077a38.045538 38.045538 0 0 0-32.610461 0.630154C374.468923 54.508308 294.045538 94.365538 67.347692 139.736615A34.816 34.816 0 0 0 39.384615 173.843692V447.409231c0 382.503385 368.009846 524.603077 441.895385 549.179077a34.894769 34.894769 0 0 0 22.055385 0c73.806769-24.576 441.895385-166.675692 441.895384-549.179077V173.843692a34.816 34.816 0 0 0-28.041846-34.107077z" fill="#EC4343" p-id="17678"></path></svg>