<svg width="190" height="190" viewBox="0 0 190 190" fill="none" xmlns="http://www.w3.org/2000/svg">
<g clip-path="url(#clip0_1368_22)">
<path d="M43.99 0H145.11C169.4 0 189.1 19.69 189.1 43.99V145.1C189.1 169.39 169.41 189.09 145.11 189.09H43.99C19.7 189.09 0 169.4 0 145.1V43.99C0 19.69 19.7 0 43.99 0Z" fill="#7DD7A1"/>
<mask id="mask0_1368_22" style="mask-type:luminance" maskUnits="userSpaceOnUse" x="41" y="54" width="107" height="90">
<path d="M147.18 54.6562H41.9199V143.826H147.18V54.6562Z" fill="white"/>
</mask>
<g mask="url(#mask0_1368_22)">
<path d="M132.35 94.4775C132.35 97.9875 135.14 100.767 138.64 100.767C142.15 100.767 144.93 97.9775 144.93 94.4775C144.93 90.9675 142.14 88.1875 138.64 88.1875C135.13 88.1875 132.35 90.9675 132.35 94.4775Z" fill="white"/>
<path d="M147.18 72.7263C147.18 62.7463 139.09 54.6562 129.11 54.6562H59.8999C50.0099 54.6562 41.9199 62.7463 41.9199 72.7263V116.316C41.9199 125.486 48.7499 133.036 57.5599 134.206V143.916L74.2799 134.296H129.11C139.09 134.296 147.18 126.206 147.18 116.226V106.876H139.27C132.35 106.876 126.69 101.216 126.69 94.2963C126.69 87.3763 132.35 81.7163 139.27 81.7163H147.18V72.7263Z" fill="white"/>
</g>
</g>
<defs>
<clipPath id="clip0_1368_22">
<rect width="190" height="190" fill="white"/>
</clipPath>
</defs>
</svg>
