<svg width="21" height="20" viewBox="0 0 21 20" fill="none" xmlns="http://www.w3.org/2000/svg">
<g clip-path="url(#clip0_2235_24169)">
<path d="M4.68181 9.99964C4.68181 9.36464 4.79014 8.75547 4.98181 8.18464L1.61681 5.66797C0.940723 7.0117 0.589632 8.49541 0.591807 9.99964C0.591807 11.5563 0.96014 13.0246 1.61514 14.328L4.97847 11.8071C4.78236 11.2247 4.68217 10.6142 4.68181 9.99964Z" fill="#FBBC05"/>
<path d="M10.5912 4.22266C11.9995 4.22266 13.272 4.71099 14.272 5.51099L17.1812 2.66682C15.4087 1.15599 13.1362 0.222656 10.5912 0.222656C6.63954 0.222656 3.24288 2.43516 1.61621 5.66849L4.98288 8.18516C5.75788 5.88016 7.96788 4.22266 10.5912 4.22266Z" fill="#EA4335"/>
<path d="M10.5912 15.7779C7.96704 15.7779 5.75704 14.1204 4.98121 11.8154L1.61621 14.3321C3.24204 17.5654 6.63871 19.7779 10.5912 19.7779C13.0295 19.7779 15.3579 18.9304 17.1062 17.3413L13.9112 14.9229C13.0104 15.4788 11.8754 15.7779 10.5904 15.7779" fill="#34A853"/>
<path d="M20.1367 10.0002C20.1367 9.42266 20.045 8.80016 19.9092 8.22266H10.5908V12.0002H15.9542C15.6867 13.2885 14.9567 14.2785 13.9125 14.9227L17.1067 17.341C18.9425 15.6727 20.1367 13.1877 20.1367 10.0002Z" fill="#4285F4"/>
</g>
<defs>
<clipPath id="clip0_2235_24169">
<rect width="20" height="20" fill="white" transform="translate(0.5)"/>
</clipPath>
</defs>
</svg>
