<svg width="21" height="20" viewBox="0 0 21 20" fill="none" xmlns="http://www.w3.org/2000/svg">
<g clip-path="url(#clip0_2397_51848)">
<path d="M4.68156 9.99964C4.68156 9.36464 4.7899 8.75547 4.98156 8.18464L1.61656 5.66797C0.940479 7.0117 0.589388 8.49541 0.591563 9.99964C0.591563 11.5563 0.959896 13.0246 1.6149 14.328L4.97823 11.8071C4.78212 11.2247 4.68193 10.6142 4.68156 9.99964Z" fill="#FBBC05"/>
<path d="M10.5917 4.22266C12 4.22266 13.2725 4.71099 14.2725 5.51099L17.1817 2.66682C15.4092 1.15599 13.1367 0.222656 10.5917 0.222656C6.64003 0.222656 3.24337 2.43516 1.6167 5.66849L4.98337 8.18516C5.75837 5.88016 7.96837 4.22266 10.5917 4.22266Z" fill="#EA4335"/>
<path d="M10.5917 15.7779C7.96753 15.7779 5.75753 14.1204 4.9817 11.8154L1.6167 14.3321C3.24253 17.5654 6.6392 19.7779 10.5917 19.7779C13.03 19.7779 15.3584 18.9304 17.1067 17.3413L13.9117 14.9229C13.0109 15.4788 11.8759 15.7779 10.5909 15.7779" fill="#34A853"/>
<path d="M20.1367 10.0002C20.1367 9.42266 20.045 8.80016 19.9092 8.22266H10.5908V12.0002H15.9542C15.6867 13.2885 14.9567 14.2785 13.9125 14.9227L17.1067 17.341C18.9425 15.6727 20.1367 13.1877 20.1367 10.0002Z" fill="#4285F4"/>
</g>
<defs>
<clipPath id="clip0_2397_51848">
<rect width="20" height="20" fill="white" transform="translate(0.5)"/>
</clipPath>
</defs>
</svg>
