<?xml version="1.0" standalone="no"?><!DOCTYPE svg PUBLIC "-//W3C//DTD SVG 1.1//EN" "http://www.w3.org/Graphics/SVG/1.1/DTD/svg11.dtd"><svg t="1748102199171" class="icon" viewBox="0 0 1024 1024" version="1.1" xmlns="http://www.w3.org/2000/svg" p-id="20007" xmlns:xlink="http://www.w3.org/1999/xlink" width="200" height="200"><path d="M694.0672 51.2l0.512 0.512a136.5504 136.5504 0 0 1 84.992 39.4752l102.0416 102.0928c22.8864 22.8352 36.8128 52.992 39.4752 84.992l0.512 0.512V824.832a136.5504 136.5504 0 0 1-136.5504 136.5504H238.9504A136.5504 136.5504 0 0 1 102.4 824.832V187.7504A136.5504 136.5504 0 0 1 238.9504 51.2h455.1168z m-45.568 91.0336h-409.6a45.5168 45.5168 0 0 0-45.4656 45.5168V824.832c0 25.1392 20.3776 45.5168 45.5168 45.5168h546.0992c25.1392 0 45.568-20.3776 45.568-45.5168V324.2496h-91.0848a91.0336 91.0336 0 0 1-90.9824-90.9824V142.2336z" fill="#F57559" p-id="20008"></path><path d="M300.3904 384.8192H401.408v223.8976h83.7632v79.616h-184.832zM607.488 384.8192c19.456 0 37.5808 2.0992 54.3744 6.3488 16.896 4.2496 31.5904 10.9056 44.1856 20.0192 12.5952 9.1136 22.528 20.992 29.7984 35.7376 7.2704 14.6944 10.9056 32.512 10.9056 53.4528 0 20.992-3.584 38.7584-10.9056 53.504-7.2704 14.6944-17.2032 26.624-29.7984 35.7376a127.8976 127.8976 0 0 1-44.1856 19.968 221.8496 221.8496 0 0 1-54.3744 6.4v72.3456H510.5664V384.8192h96.9216z m4.096 81.92h-4.096v67.328h4.096c12.8 0 21.9136-2.9696 27.5456-8.8576 5.632-5.9392 8.3968-14.1824 8.3968-24.832 0-10.5984-2.7648-18.8928-8.3968-24.7808-5.632-5.9392-14.7968-8.8576-27.5456-8.8576z" fill="#F57559" p-id="20009"></path></svg>