<?xml version="1.0" standalone="no"?><!DOCTYPE svg PUBLIC "-//W3C//DTD SVG 1.1//EN" "http://www.w3.org/Graphics/SVG/1.1/DTD/svg11.dtd"><svg t="1748092276934" class="icon" viewBox="0 0 1024 1024" version="1.1" xmlns="http://www.w3.org/2000/svg" p-id="18385" xmlns:xlink="http://www.w3.org/1999/xlink" width="200" height="200"><path d="M512.877714 0l23.625143 11.849143 23.405714 11.556571C649.508571 67.145143 743.131429 104.740571 950.857143 146.285714v287.085715c0 325.12-276.333714 487.643429-438.857143 541.842285-162.596571-54.198857-438.857143-216.722286-438.857143-541.842285V146.285714C280.868571 104.740571 374.491429 67.145143 465.188571 23.405714l23.698286-11.556571L512.877714 0z m62.025143 221.037714a24.356571 24.356571 0 0 0-26.843428 6.436572L304.274286 498.395429a24.356571 24.356571 0 0 0 18.139428 40.667428h111.030857V731.428571a24.356571 24.356571 0 0 0 42.496 16.310858L719.798857 476.891429a24.356571 24.356571 0 0 0-18.139428-40.667429H590.628571v-192.365714a24.356571 24.356571 0 0 0-15.725714-22.747429z" fill="#848E9C" p-id="18386"></path></svg>