<svg width="10" height="12" viewBox="0 0 10 12" fill="none" xmlns="http://www.w3.org/2000/svg">
<path d="M8.91728 4.68352V4.87539C8.91728 4.98196 8.84006 5.07497 8.738 5.0818C8.62618 5.08928 8.53334 4.99708 8.53334 4.88219V4.67717C8.53334 4.54407 8.43711 4.4277 8.30964 4.41889C8.16983 4.40924 8.05316 4.52499 8.05316 4.66837V4.93217C8.05316 5.04264 7.9672 5.13221 7.86119 5.13221C7.75519 5.13221 7.66921 5.04269 7.66921 4.93217V3.76324C7.66921 3.61941 7.55223 3.50357 7.41245 3.51354C7.28502 3.52264 7.18903 3.63914 7.18903 3.77222V4.16207C7.18903 4.27234 7.10313 4.36211 6.99706 4.36211C6.89099 4.36211 6.80509 4.27234 6.80509 4.16207V3.77709C6.80509 3.42315 7.07092 3.12359 7.41045 3.11314C7.76311 3.10229 8.05316 3.39814 8.05316 3.76322V4.06853C8.47207 3.88434 8.91728 4.22391 8.91728 4.68352ZM1.22415 2.90082C1.82671 2.19293 2.60877 1.64757 3.49185 1.31851C3.65191 0.55861 4.30846 0 5.0658 0H5.76962C5.87564 0 5.9616 0.0895676 5.9616 0.200039V0.933184C5.9616 1.7977 5.3511 2.35356 4.92575 2.50852C4.84853 2.53665 4.79667 2.61199 4.79667 2.69723C4.79665 2.83368 4.92523 2.931 5.04915 2.88689C5.21146 2.82911 5.39983 2.72269 5.5819 2.56993C5.68664 2.48206 5.84469 2.5282 5.88555 2.6617C5.98125 2.97436 5.9616 3.13017 5.9616 3.90477C5.9616 4.01504 5.87569 4.10481 5.76962 4.10481H5.0658C4.42724 4.10481 3.85876 3.71373 3.60031 3.12512C3.35507 3.35891 3.19285 3.67097 3.14486 4.01104C3.02878 4.83463 3.66052 5.53134 4.4246 5.53134H9.01759C9.5896 5.53134 10.0385 6.03834 9.99738 6.6263C9.97749 6.90919 9.93492 7.18782 9.87132 7.45979C9.84661 7.56549 9.74563 7.63193 9.64372 7.60835C7.59477 7.13428 5.94055 8.30261 5.25446 9.8756C5.01029 10.5111 4.57391 11.0955 3.99703 11.4822C3.23283 11.9945 2.39512 12.029 2.2168 11.9872C1.78205 11.8829 1.57659 11.2989 1.97064 10.9217C2.42977 10.4833 2.72071 9.90092 2.83295 9.26447C2.85301 9.15073 2.77564 9.04333 2.66533 9.03048C2.58189 9.016 2.47532 9.07904 2.45504 9.19389C2.41077 9.44466 2.31694 9.78018 2.11854 10.1142C2.05739 10.2172 1.92231 10.2392 1.8329 10.162C-0.227246 8.38133 -0.717093 5.18265 1.22415 2.90082ZM6.49498 6.63893C6.49498 6.7494 6.58093 6.83897 6.68695 6.83897H6.72635C6.83237 6.83897 6.91833 6.7494 6.91833 6.63893C6.91833 6.52846 6.83237 6.43889 6.72635 6.43889H6.68695C6.58093 6.43889 6.49498 6.52846 6.49498 6.63893ZM5.60621 10.0367C5.46206 10.4081 5.26368 10.7533 5.0227 11.0576C4.91879 11.1888 5.01041 11.3876 5.17364 11.3844C7.1055 11.3471 8.85475 10.1258 9.61789 8.2552C9.66529 8.13903 9.59872 8.00575 9.47996 7.98087C7.66636 7.60095 6.21479 8.6437 5.60621 10.0367Z" fill="#286DFF"/>
</svg>
