<?xml version="1.0" standalone="no"?><!DOCTYPE svg PUBLIC "-//W3C//DTD SVG 1.1//EN" "http://www.w3.org/Graphics/SVG/1.1/DTD/svg11.dtd"><svg t="1748092282851" class="icon" viewBox="0 0 1024 1024" version="1.1" xmlns="http://www.w3.org/2000/svg" p-id="18527" xmlns:xlink="http://www.w3.org/1999/xlink" width="200" height="200"><path d="M513.024 768a51.436308 51.436308 0 0 1-51.515077-51.2c0-28.278154 22.685538-51.2 50.963692-51.2h0.551385a51.2 51.2 0 1 1 0 102.4z m-39.384615-409.6a38.439385 38.439385 0 0 1 76.72123 0v204.8a38.360615 38.360615 0 1 1-76.8 0v-204.8z m530.195692 366.119385L665.6 92.002462c-65.536-122.643692-241.664-122.643692-307.2 0L20.164923 724.440615c-60.100923 112.482462 21.504 248.280615 149.188923 248.280616h685.292308c127.684923 0 209.368615-135.798154 149.188923-248.280616z" fill="#848E9C" p-id="18528"></path></svg>