<?xml version="1.0" standalone="no"?><!DOCTYPE svg PUBLIC "-//W3C//DTD SVG 1.1//EN" "http://www.w3.org/Graphics/SVG/1.1/DTD/svg11.dtd"><svg t="1748092290724" class="icon" viewBox="0 0 1024 1024" version="1.1" xmlns="http://www.w3.org/2000/svg" p-id="18669" xmlns:xlink="http://www.w3.org/1999/xlink" width="200" height="200"><path d="M577.536 490.130286c-26.624 17.700571-30.573714 26.550857-30.939429 27.428571a37.376 37.376 0 0 1-46.738285 22.235429 36.059429 36.059429 0 0 1-22.528-45.568c9.801143-29.257143 38.765714-51.053714 59.684571-65.097143 31.085714-20.553143 31.451429-41.472 28.964572-55.369143a55.442286 55.442286 0 0 0-43.739429-43.739429 54.710857 54.710857 0 0 0-65.097143 53.906286 36.571429 36.571429 0 0 1-73.142857 0c0-37.814857 16.676571-73.654857 45.714286-98.011428 29.037714-24.283429 67.291429-34.523429 105.179428-27.940572a129.097143 129.097143 0 0 1 103.131429 103.131429c8.996571 51.273143-12.507429 97.133714-60.489143 129.024z m-64.585143 192.512a49.005714 49.005714 0 0 1-49.005714-48.786286c0-26.916571 21.577143-48.713143 48.493714-48.713143h0.512a48.713143 48.713143 0 1 1 0 97.499429zM950.857143 146.285714C706.998857 97.499429 620.397714 54.125714 512.877714 0 403.602286 54.125714 316.928 97.499429 73.142857 146.285714v287.158857c0 325.046857 276.333714 487.570286 438.857143 541.769143 162.523429-54.125714 438.857143-216.722286 438.857143-541.769143V146.285714z" fill="#848E9C" p-id="18670"></path></svg>