<?xml version="1.0" standalone="no"?><!DOCTYPE svg PUBLIC "-//W3C//DTD SVG 1.1//EN" "http://www.w3.org/Graphics/SVG/1.1/DTD/svg11.dtd"><svg t="1748182189947" class="icon" viewBox="0 0 1024 1024" version="1.1" xmlns="http://www.w3.org/2000/svg" p-id="20308" xmlns:xlink="http://www.w3.org/1999/xlink" width="200" height="200"><path d="M704.590769 479.389538a39.936 39.936 0 0 0-39.936-39.936H291.84a39.936 39.936 0 0 0 0 79.872h372.814769c22.055385 0 39.936-17.880615 39.936-39.936zM544.846769 692.381538a39.936 39.936 0 0 0-39.936-39.936H291.84a39.936 39.936 0 0 0 0 79.95077H504.910769c22.055385 0 39.936-17.959385 39.936-40.01477z m332.878769-332.878769v439.453539c0 106.496-53.248 159.744-159.822769 159.744H238.670769C132.017231 958.700308 78.769231 905.452308 78.769231 798.956308V159.822769C78.769231 53.248 132.017231 0 238.592 0h279.630769v159.822769c0 128.866462 70.813538 199.68 199.68 199.68h159.822769zM837.789538 279.630769H717.902769c-84.125538 0-119.808-35.682462-119.808-119.808V39.936L837.789538 279.630769z" fill="#CCCCCC" p-id="20309"></path></svg>