<?xml version="1.0" standalone="no"?><!DOCTYPE svg PUBLIC "-//W3C//DTD SVG 1.1//EN" "http://www.w3.org/Graphics/SVG/1.1/DTD/svg11.dtd"><svg t="1748198284299" class="icon" viewBox="0 0 1024 1024" version="1.1" xmlns="http://www.w3.org/2000/svg" p-id="20492" xmlns:xlink="http://www.w3.org/1999/xlink" width="200" height="200"><path d="M490.945763 632.3528l183.792608-190.512044a36.668929 36.668929 0 0 0 0-50.555766 33.597186 33.597186 0 0 0-48.763916 0l-159.346655 165.298156-67.57834-70.010136a33.597186 33.597186 0 0 0-48.699922 0 36.668929 36.668929 0 0 0 0 50.555765L442.181847 632.3528a33.78917 33.78917 0 0 0 48.763916 0M528.318633 3.541463c14.20681 7.423378 27.965658 14.590778 41.788501 21.630189l20.862252 10.431126c77.049547 37.692843 163.570301 70.906062 341.283418 107.70298a35.453031 35.453031 0 0 1 27.709679 35.069063V458.927325c0 392.287146-364.06551 537.938948-437.083394 563.21683a32.893245 32.893245 0 0 1-21.758178 0C428.103026 996.866272 64.037517 851.214471 64.037517 458.927325V178.374821c0-17.022574 11.519035-31.677347 27.709679-35.069063C291.858437 101.837231 376.71533 64.784334 464.196004 20.436048l21.118231-10.751099 10.7511-5.503539a36.41295 36.41295 0 0 1 32.253298-0.639947z" fill="#37C882" p-id="20493"></path></svg>