<svg xmlns="http://www.w3.org/2000/svg" width="20" height="20" viewBox="0 0 20 20" fill="currentColor">
  <path
    d="M2.91667 5.83324H4.38914C4.78414 5.83324 5.16588 5.69314 5.46672 5.43814L8.54248 2.83235C9.44665 2.06651 10.8341 2.70916 10.8341 3.89416V16.1057C10.8341 17.2907 9.44665 17.9341 8.54248 17.1675L5.46672 14.5617C5.16588 14.3067 4.78414 14.1666 4.38914 14.1666H2.91667C2.22667 14.1666 1.66667 13.6066 1.66667 12.9166V7.08406C1.66667 6.39322 2.22667 5.83324 2.91667 5.83324ZM13.9725 13.9757C15.0383 12.9149 15.625 11.5024 15.625 9.99991C15.625 8.49741 15.0383 7.08491 13.9725 6.02408C13.7275 5.78075 13.3317 5.78071 13.0884 6.02571C12.8442 6.26987 12.8458 6.66657 13.09 6.9099C13.9183 7.7349 14.375 8.83322 14.375 10.0007C14.375 11.1682 13.9183 12.2665 13.09 13.0915C12.8458 13.3349 12.8442 13.7307 13.0884 13.9757C13.21 14.0982 13.3709 14.1599 13.5309 14.1599C13.6909 14.1582 13.85 14.0974 13.9725 13.9757ZM15.8892 16.5166C15.7292 16.5166 15.5683 16.4558 15.4467 16.3333C15.2033 16.0892 15.2033 15.6933 15.4483 15.4491C16.9058 13.9958 17.7083 12.0607 17.7083 9.99991C17.7083 7.93908 16.9058 6.00486 15.4483 4.55069C15.2033 4.30652 15.2033 3.91066 15.4467 3.6665C15.69 3.42233 16.0859 3.42151 16.3309 3.66568C18.025 5.35568 18.9583 7.60574 18.9583 9.99991C18.9583 12.3941 18.025 14.6441 16.3309 16.3341C16.2084 16.4558 16.0492 16.5166 15.8892 16.5166Z"
    fill="#fff"/>
</svg>
