<?xml version="1.0" standalone="no"?><!DOCTYPE svg PUBLIC "-//W3C//DTD SVG 1.1//EN" "http://www.w3.org/Graphics/SVG/1.1/DTD/svg11.dtd"><svg fill="currentColor" t="1747382697946" class="icon" viewBox="0 0 1024 1024" version="1.1" xmlns="http://www.w3.org/2000/svg" p-id="13615" xmlns:xlink="http://www.w3.org/1999/xlink" width="200" height="200"><path d="M512 952.5248A441.0368 441.0368 0 0 1 71.4752 512 441.0368 441.0368 0 0 1 512 71.4752 441.0368 441.0368 0 0 1 952.5248 512 441.1392 441.1392 0 0 1 512 952.5248M512 0C229.6832 0 0 229.6832 0 512s229.6832 512 512 512 512-229.6832 512-512-229.6832-512-512-512" fill="#848E9C" p-id="13616"></path><path d="M522.24 737.28c-32.768 0-63.0784-11.5712-86.4256-35.0208l-93.5936-93.4912A120.0128 120.0128 0 0 1 307.2 522.24c0-32.768 11.6736-63.0784 35.0208-86.4256l93.5936-93.5936C459.1616 318.8736 489.472 307.2 522.24 307.2c32.768 0 63.1808 11.6736 86.528 35.0208l93.4912 93.5936c23.4496 23.3472 35.1232 53.76 35.1232 86.4256 0 32.768-11.6736 63.1808-35.1232 86.528l-93.4912 93.4912a130.4576 130.4576 0 0 1-86.528 35.1232z m0-364.544a46.4896 46.4896 0 0 0-37.376 16.384l-93.4912 93.3888a55.1936 55.1936 0 0 0-16.384 37.4784c0 14.0288 4.7104 28.0576 16.384 37.376l93.4912 93.4912c18.7392 18.7392 53.76 18.7392 74.752 0l93.5936-93.4912a55.1936 55.1936 0 0 0 16.384-37.376 46.4896 46.4896 0 0 0-16.384-37.4784L559.7184 389.12a55.1936 55.1936 0 0 0-37.4784-16.384z" fill="#848E9C" p-id="13617"></path></svg>
