<?xml version="1.0" standalone="no"?><!DOCTYPE svg PUBLIC "-//W3C//DTD SVG 1.1//EN" "http://www.w3.org/Graphics/SVG/1.1/DTD/svg11.dtd"><svg t="1748272203066" class="icon" viewBox="0 0 1024 1024" version="1.1" xmlns="http://www.w3.org/2000/svg" p-id="15067" xmlns:xlink="http://www.w3.org/1999/xlink" width="200" height="200"><path d="M500.363636 1000.727273c276.014545 0 500.363636-224.349091 500.363637-500.363637S776.378182 0 500.363636 0 0 224.349091 0 500.363636 224.349091 1000.727273 500.363636 1000.727273z m0-930.909091c237.381818 0 430.545455 193.163636 430.545455 430.545454S737.745455 930.909091 500.363636 930.909091 69.818182 737.745455 69.818182 500.363636 262.981818 69.818182 500.363636 69.818182zM279.272727 500.363636c0-19.083636 15.825455-34.909091 34.909091-34.909091h288.116364l-80.058182-80.058181a35.095273 35.095273 0 0 1 0-49.338182c6.981818-6.981818 15.825455-10.24 24.669091-10.24s17.687273 3.258182 24.669091 10.24l139.636363 139.636363c3.258182 3.258182 5.585455 6.981818 7.447273 11.17091 3.723636 8.378182 3.723636 18.152727 0 26.530909-1.861818 4.189091-4.189091 7.912727-7.447273 11.170909l-139.636363 139.636363c-13.498182 13.498182-35.84 13.498182-49.338182 0a35.095273 35.095273 0 0 1 0-49.338181l80.058182-80.058182H314.181818c-19.083636 0-34.909091-15.825455-34.909091-34.909091v0.465454z" fill="currentColor" p-id="15068"></path></svg>