<svg t="1751523510991" fill="currentColor" viewBox="0 0 1024 1024" version="1.1" xmlns="http://www.w3.org/2000/svg" p-id="13709" width="200" height="200"><path d="M73.142857 877.714286v-97.499429h219.428572V877.714286H73.142857z m0-316.928V463.213714h365.714286v97.572572H73.142857z m0-317.001143V146.285714h877.714286v97.499429H73.142857zM955.757714 950.857143l-149.942857-148.699429c-14.628571 8.923429-30.281143 15.652571-46.957714 20.114286a199.094857 199.094857 0 0 1-51.785143 6.656 187.830857 187.830857 0 0 1-137.801143-57.270857A187.830857 187.830857 0 0 1 512 633.929143c0-53.686857 19.090286-99.547429 57.270857-137.801143A187.830857 187.830857 0 0 1 707.072 438.857143c53.613714 0 99.474286 19.090286 137.728 57.270857 38.180571 38.253714 57.270857 84.114286 57.270857 137.801143a187.830857 187.830857 0 0 1-28.013714 99.913143L1024 882.614857l-68.242286 68.242286z m-248.685714-219.428572c26.770286 0 49.737143-9.508571 68.827429-28.672 19.090286-19.017143 28.672-42.057143 28.672-68.827428 0-26.843429-9.508571-49.737143-28.672-68.900572a93.915429 93.915429 0 0 0-68.827429-28.672c-26.843429 0-49.737143 9.508571-68.900571 28.672a93.915429 93.915429 0 0 0-28.672 68.900572c0 26.770286 9.508571 49.737143 28.672 68.827428 19.090286 19.090286 42.057143 28.672 68.900571 28.672z" p-id="13710"></path></svg>
