<svg fill="currentColor" t="1747812733152" class="icon" viewBox="0 0 1024 1024" version="1.1" xmlns="http://www.w3.org/2000/svg" p-id="13615" width="200" height="200"><path d="M511.659349 0a511.658894 511.658894 0 1 0 0 1023.317788 511.658894 511.658894 0 0 0 0-1023.317788z m61.228514 633.348434L447.957817 758.193205a139.000666 139.000666 0 0 1-195.965357 0l-2.302465-2.302465a139.000666 139.000666 0 0 1 0-195.965357l87.323118-87.323118c-0.341106 25.753498 4.263824 51.592272 14.07062 75.810793l-56.453032 56.453031a75.128581 75.128581 0 0 0 0 106.169221l2.302465 2.217188a75.128581 75.128581 0 0 0 106.083944 0l124.759494-124.84477a75.043304 75.043304 0 0 0 0-106.083944l-2.302465-2.302465a76.748834 76.748834 0 0 0-14.923384-11.427049l45.708194-45.708194c4.946036 3.752165 9.721519 7.76016 14.155896 12.279813l2.387742 2.302465a138.91539 138.91539 0 0 1 0 195.88008z m182.06529-182.150566L667.630035 538.520986a193.065956 193.065956 0 0 0-13.985343-75.725516l56.453031-56.538308a75.128581 75.128581 0 0 0 0-106.083944l-2.302465-2.302465a75.043304 75.043304 0 0 0-106.083944 0L476.866544 422.800799a75.043304 75.043304 0 0 0 0 106.083945l2.302465 2.302465a76.322452 76.322452 0 0 0 15.008661 11.427048l-45.708195 45.708195a131.581612 131.581612 0 0 1-14.241172-12.194537l-2.302465-2.302465a139.000666 139.000666 0 0 1 0-195.965357L556.770608 253.1006a139.000666 139.000666 0 0 1 195.965356 0l2.302465 2.302465a139.000666 139.000666 0 0 1 0 195.88008z" fill="#999999" p-id="13616"></path></svg>
