<?xml version="1.0" standalone="no"?><!DOCTYPE svg PUBLIC "-//W3C//DTD SVG 1.1//EN" "http://www.w3.org/Graphics/SVG/1.1/DTD/svg11.dtd"><svg t="1747898757149" class="icon" viewBox="0 0 1024 1024" version="1.1" xmlns="http://www.w3.org/2000/svg" p-id="13709" xmlns:xlink="http://www.w3.org/1999/xlink" width="200" height="200"><path d="M456.326737 17.946947v102.938948h143.036631V17.946947h67.69179l1.293474 102.938948c101.483789-5.227789 223.824842 10.401684 270.659368 153.49221 46.888421 143.144421-72.865684 235.843368-72.865684 235.843369s89.626947 53.463579 85.90821 193.482105c-49.475368 226.411789-281.061053 197.793684-281.061052 197.793684v98.842948h-72.865685V898.964211H449.805474v101.429894H385.994105v-105.36421s-152.144842 10.401684-251.041684-1.293474c-101.537684-70.278737 0-143.144421 0-143.144421l1.293474-478.800842c-99.489684-89.680842-1.724632-142.228211 9.431579-147.779369l1.024-0.538947 238.106947-2.533053V17.946947h71.518316z m226.357895 241.017264H364.544c-31.905684 0-57.829053 25.869474-57.829053 57.829052v426.684632c0 57.020632 23.983158 40.151579 72.003369-50.661053h303.966316c31.905684 0 57.829053-25.923368 57.829052-57.882947V316.793263c0-31.905684-25.869474-57.829053-57.829052-57.829052z m-219.351579 192.781473a36.109474 36.109474 0 1 1 0 72.326737 36.109474 36.109474 0 0 1 0-72.326737z m144.599579 0a36.109474 36.109474 0 1 1 0 72.326737 36.109474 36.109474 0 0 1 0-72.326737z" fill="currentColor" p-id="13710"></path></svg>