<?xml version="1.0" standalone="no"?><!DOCTYPE svg PUBLIC "-//W3C//DTD SVG 1.1//EN" "http://www.w3.org/Graphics/SVG/1.1/DTD/svg11.dtd"><svg fill="currentColor" t="1747382271575" class="icon" viewBox="0 0 1024 1024" version="1.1" xmlns="http://www.w3.org/2000/svg" p-id="13615" xmlns:xlink="http://www.w3.org/1999/xlink" width="200" height="200"><path d="M477.73538469 583.26153875h68.52923062A33.96923063 33.96923063 0 0 0 580.52923062 548.92307655a33.96923063 33.96923063 0 0 0-34.26461531-34.4861531h-68.52923062A33.96923063 33.96923063 0 0 0 443.47076938 548.92307655a33.96923063 33.96923063 0 0 0 34.26461531 34.41230814z m0 137.7969225h68.52923062a33.96923063 33.96923063 0 0 0 34.26461531-34.48615313 33.96923063 33.96923063 0 0 0-34.26461531-34.41230812h-68.52923062a33.96923063 33.96923063 0 0 0-34.26461532 34.41230812 33.96923063 33.96923063 0 0 0 34.26461532 34.48615313zM854.64615406 101.12H717.51384594V66.70769188A33.96923063 33.96923063 0 0 0 683.32307655 32.22153875a33.96923063 33.96923063 0 0 0-34.19076843 34.48615313v34.41230812H374.94153875V66.70769188A33.96923063 33.96923063 0 0 0 340.67692345 32.22153875a33.96923063 33.96923063 0 0 0-34.19076939 34.48615313v34.41230812H169.35384594c-75.32307655 0-137.05846125 62.03076938-137.05846125 137.79692343v550.96615312c0 75.76615406 61.66153875 137.79692345 137.05846125 137.79692345h685.14461531c75.32307655 0 137.05846125-62.03076938 137.05846218-137.79692345V238.91692345A137.79692345 137.79692345 0 0 0 854.57230813 101.12z m68.52923063 688.76307655a68.89846125 68.89846125 0 0 1-68.52923063 68.8984622H169.35384594a68.89846125 68.89846125 0 0 1-68.52923063-68.8984622V376.64h822.20307656v413.24307657z m0-482.1415378H100.89846125v-68.82461532c0-37.88307657 30.86769188-68.89846125 68.52923062-68.89846218h137.05846219v34.41230813a33.96923063 33.96923063 0 0 0 34.19076939 34.48615405 33.96923063 33.96923063 0 0 0 34.2646153-34.48615405V170.09230812h274.1169225v34.41230719a33.96923063 33.96923063 0 0 0 34.19076938 34.48615407 33.96923063 33.96923063 0 0 0 34.26461531-34.48615407V170.09230812h137.05846218c37.66153875 0 68.52923062 31.01538469 68.52923063 68.89846126v68.82461531zM272.22153875 721.05846125h68.45538468a33.96923063 33.96923063 0 0 0 34.26461532-34.48615313 33.96923063 33.96923063 0 0 0-34.26461532-34.41230812h-68.45538468a33.96923063 33.96923063 0 0 0-34.26461532 34.41230812 33.96923063 33.96923063 0 0 0 34.26461532 34.48615313z m411.02769187-137.7969225h68.52923063A33.96923063 33.96923063 0 0 0 786.04307655 548.92307655a33.96923063 33.96923063 0 0 0-34.2646153-34.4861531H683.32307655A33.96923063 33.96923063 0 0 0 649.05846125 548.92307655a33.96923063 33.96923063 0 0 0 34.19076938 34.41230814z m-411.02769187 0h68.45538468A33.96923063 33.96923063 0 0 0 374.94153875 548.92307655a33.96923063 33.96923063 0 0 0-34.2646153-34.4861531h-68.4553847A33.96923063 33.96923063 0 0 0 237.95692345 548.92307655a33.96923063 33.96923063 0 0 0 34.2646153 34.41230814z m411.02769187 137.7969225h68.52923063a33.96923063 33.96923063 0 0 0 34.2646153-34.48615313 33.96923063 33.96923063 0 0 0-34.2646153-34.41230812H683.32307655a33.96923063 33.96923063 0 0 0-34.19076843 34.41230812 33.96923063 33.96923063 0 0 0 34.19076845 34.48615313z" p-id="13616"></path></svg>
