<svg xmlns="http://www.w3.org/2000/svg" width="14" height="14" viewBox="0 0 14 14" fill="currentColor">
  <path fill-rule="evenodd" clip-rule="evenodd"
        d="M7 0C3.1339 0 0 3.1339 0 7C0 10.8661 3.1339 14 7 14C10.8661 14 14 10.8661 14 7C14 3.1339 10.8661 0 7 0ZM9.47102 9.47102C9.36882 9.57322 9.2344 9.625 9.1 9.625C8.9656 9.625 8.83118 9.57392 8.72898 9.47102L6.62898 7.37102C6.53028 7.27232 6.475 7.1386 6.475 7V3.5C6.475 3.2102 6.7102 2.975 7 2.975C7.2898 2.975 7.525 3.2102 7.525 3.5V6.78228L9.47102 8.7283C9.67612 8.9341 9.67612 9.26592 9.47102 9.47102Z"
        fill="#999999"/>
</svg>
