<?xml version="1.0" standalone="no"?><!DOCTYPE svg PUBLIC "-//W3C//DTD SVG 1.1//EN" "http://www.w3.org/Graphics/SVG/1.1/DTD/svg11.dtd"><svg t="1748102247370" class="icon" viewBox="0 0 1024 1024" version="1.1" xmlns="http://www.w3.org/2000/svg" p-id="20164" xmlns:xlink="http://www.w3.org/1999/xlink" width="200" height="200" fill="currentColor"><path d="M673.024 699.221333H321.578667c-16.085333 0-29.44 9.130667-29.44 20.48 0 11.392 12.970667 20.565333 29.44 20.565334h351.445333c16.085333 0 29.44-9.173333 29.44-20.522667 0-11.392-13.354667-20.522667-29.44-20.522667z"  p-id="20165"></path><path d="M665.6 42.752v0.896c-3.669333 0-19.84-1.322667-60.501333-0.853333H249.045333C182.058667 42.752 128 96 128 161.408v665.258667c0 65.450667 54.058667 118.698667 121.045333 118.698666h537.557334c66.986667 0 121.045333-53.248 121.045333-118.698666V280.149333L665.6 42.794667z m183.338667 239.232l-123.306667-1.792h4.181333c-28.16 0-67.882667-26.666667-67.882666-59.136l-0.938667-122.794667 187.946667 183.722667z m6.485333 553.301333c0 33.408-27.690667 60.928-61.866667 60.928H242.090667c-34.218667 0-61.866667-27.093333-61.866667-60.928V153.344c0-33.408 27.648-60.928 61.866667-60.928h363.946666c-0.341333 40.448 0 80.938667 0.896 121.429333 0 67.242667 55.466667 121.386667 124.245334 121.386667h124.245333v500.053333z"  p-id="20166"></path><path d="M673.024 495.573333H321.578667c-16.085333 0-29.44 8.832-29.44 19.712 0 10.965333 12.970667 19.797333 29.44 19.797334h351.445333c16.085333 0 29.44-8.832 29.44-19.797334 0-10.88-13.354667-19.712-29.44-19.712z m-144.213333-165.674666H310.442667c-10.368 0-18.346667 8.832-18.346667 19.797333 0 10.922667 8.021333 19.712 18.304 19.712h218.325333c10.24 0 18.346667-8.789333 18.346667-19.712 0-10.965333-8.106667-19.797333-18.346667-19.797333z"  p-id="20167"></path></svg>
