<svg width="16" height="16" viewBox="0 0 16 16" fill="currentColor" xmlns="http://www.w3.org/2000/svg">
<path d="M13.5284 1.23828C13.7942 1.23828 14.0492 1.34787 14.2372 1.54295C14.4251 1.73802 14.5307 2.0026 14.5307 2.27847V13.7206C14.5307 13.9964 14.4251 14.261 14.2372 14.4561C14.0492 14.6512 13.7942 14.7607 13.5284 14.7607H2.50236C2.23652 14.7607 1.98157 14.6512 1.79359 14.4561C1.60561 14.261 1.5 13.9964 1.5 13.7206V2.27847C1.5 2.0026 1.60561 1.73802 1.79359 1.54295C1.98157 1.34787 2.23652 1.23828 2.50236 1.23828H13.5284ZM13.3279 2.48651H2.70284V13.5125H13.3279V2.48651Z" fill="currentColor"/>
<path d="M13.7696 6.13379V7.38202H2.25977V6.13379H13.7696Z" fill="currentColor"/>
<path d="M7.63448 6.75781V13.9642H6.43164V6.75781H7.63448Z" fill="currentColor"/>
</svg>
