<?xml version="1.0" standalone="no"?><!DOCTYPE svg PUBLIC "-//W3C//DTD SVG 1.1//EN" "http://www.w3.org/Graphics/SVG/1.1/DTD/svg11.dtd"><svg t="1746752627196" class="icon" viewBox="0 0 1024 1024" version="1.1" xmlns="http://www.w3.org/2000/svg" p-id="26942" xmlns:xlink="http://www.w3.org/1999/xlink" width="200" height="200"><path d="M518.380574 85.335289h0.426665c15.103969 0 21.674622 18.645294 10.325312 28.458607a306.260695 306.260695 0 0 0-101.162456 292.692724c24.746615 128.981065 130.943727 227.15686 262.954119 244.778157a315.135343 315.135343 0 0 0 221.951538-52.053225c12.543974-8.533316 29.013273 2.730661 25.343947 17.279964-52.351891 204.58624-254.292804 350.420603-484.606991 317.524671-191.402268-27.30661-342.441953-180.863623-365.097906-370.089895A421.460455 421.460455 0 0 1 145.560017 294.828186 434.089762 434.089762 0 0 1 518.380574 85.335289" fill="currentColor" p-id="26943"></path></svg>
