<svg width="16" height="16" viewBox="0 0 16 16" fill="currentColor" xmlns="http://www.w3.org/2000/svg">
<path d="M13.2418 2.5H2.74961C2.61055 2.5 2.49805 2.6125 2.49805 2.75156V13.2437C2.49805 13.3828 2.61055 13.4953 2.74961 13.4953H13.2418C13.3809 13.4953 13.4934 13.3828 13.4934 13.2437V10.5469H10.3855C8.9793 10.5469 7.83555 9.40312 7.83555 7.99687C7.83555 6.59062 8.9793 5.44688 10.3855 5.44688H13.4934V2.75156C13.4934 2.6125 13.3809 2.5 13.2418 2.5Z" />
<path d="M8.93555 7.99687C8.93555 8.79687 9.58711 9.44687 10.3855 9.44687H13.4934V6.54688H10.3855C9.58555 6.54688 8.93555 7.19687 8.93555 7.99687ZM11.0262 8.01562C11.0262 8.31875 10.7793 8.56563 10.4762 8.56563C10.173 8.56563 9.92617 8.31875 9.92617 8.01562C9.92617 7.7125 10.173 7.46562 10.4762 7.46562C10.7793 7.46562 11.0262 7.7125 11.0262 8.01562Z" />
</svg>
