<svg width="13" height="4" viewBox="0 0 13 4" fill="currentColor" xmlns="http://www.w3.org/2000/svg">
<path fill-rule="evenodd" clip-rule="evenodd" d="M6 3.33333C6 2.965 5.70167 2.66667 5.33333 2.66667C4.965 2.66667 4.66667 2.965 4.66667 3.33333C4.66667 3.70167 4.965 4 5.33333 4C5.70167 4 6 3.70167 6 3.33333ZM3.66667 3.33333C3.66667 2.965 3.36833 2.66667 3 2.66667C2.63167 2.66667 2.33333 2.965 2.33333 3.33333C2.33333 3.70167 2.63167 4 3 4C3.36833 4 3.66667 3.70167 3.66667 3.33333ZM1.33333 3.33333C1.33333 2.965 1.035 2.66667 0.666667 2.66667C0.298333 2.66667 0 2.965 0 3.33333C0 3.70167 0.298333 4 0.666667 4C1.035 4 1.33333 3.70167 1.33333 3.33333ZM6 0.666667C6 0.298333 5.70167 0 5.33333 0C4.965 0 4.66667 0.298333 4.66667 0.666667C4.66667 1.035 4.965 1.33333 5.33333 1.33333C5.70167 1.33333 6 1.035 6 0.666667ZM3.66667 0.666667C3.66667 0.298333 3.36833 0 3 0C2.63167 0 2.33333 0.298333 2.33333 0.666667C2.33333 1.035 2.63167 1.33333 3 1.33333C3.36833 1.33333 3.66667 1.035 3.66667 0.666667ZM0.666667 1.33333C0.298333 1.33333 0 1.035 0 0.666667C0 0.298333 0.298333 0 0.666667 0C1.035 0 1.33333 0.298333 1.33333 0.666667C1.33333 1.035 1.035 1.33333 0.666667 1.33333Z" />
<path fill-rule="evenodd" clip-rule="evenodd" d="M13 3.33333C13 2.965 12.7017 2.66667 12.3333 2.66667C11.965 2.66667 11.6667 2.965 11.6667 3.33333C11.6667 3.70167 11.965 4 12.3333 4C12.7017 4 13 3.70167 13 3.33333ZM10.6667 3.33333C10.6667 2.965 10.3683 2.66667 10 2.66667C9.63167 2.66667 9.33333 2.965 9.33333 3.33333C9.33333 3.70167 9.63167 4 10 4C10.3683 4 10.6667 3.70167 10.6667 3.33333ZM8.33333 3.33333C8.33333 2.965 8.035 2.66667 7.66667 2.66667C7.29833 2.66667 7 2.965 7 3.33333C7 3.70167 7.29833 4 7.66667 4C8.035 4 8.33333 3.70167 8.33333 3.33333ZM13 0.666667C13 0.298333 12.7017 0 12.3333 0C11.965 0 11.6667 0.298333 11.6667 0.666667C11.6667 1.035 11.965 1.33333 12.3333 1.33333C12.7017 1.33333 13 1.035 13 0.666667ZM10.6667 0.666667C10.6667 0.298333 10.3683 0 10 0C9.63167 0 9.33333 0.298333 9.33333 0.666667C9.33333 1.035 9.63167 1.33333 10 1.33333C10.3683 1.33333 10.6667 1.035 10.6667 0.666667ZM7.66667 1.33333C7.29833 1.33333 7 1.035 7 0.666667C7 0.298333 7.29833 0 7.66667 0C8.035 0 8.33333 0.298333 8.33333 0.666667C8.33333 1.035 8.035 1.33333 7.66667 1.33333Z" />
</svg>
