<?xml version="1.0" standalone="no"?><!DOCTYPE svg PUBLIC "-//W3C//DTD SVG 1.1//EN" "http://www.w3.org/Graphics/SVG/1.1/DTD/svg11.dtd"><svg t="1747622529215" class="icon" viewBox="0 0 1024 1024" version="1.1" xmlns="http://www.w3.org/2000/svg" p-id="26692" xmlns:xlink="http://www.w3.org/1999/xlink" width="200" height="200"><path d="M766.758932 491.52852L273.09643 983.040655H0V709.944225l491.512136-493.662502a15.871746 15.871746 0 0 1 22.937233 0l251.797571 251.797572a15.871746 15.871746 0 0 1 0 22.937233l0.511992 0.511992z m58.367066-80.280316a15.871746 15.871746 0 0 0 23.039631 0l102.603159-102.705557a110.078239 110.078239 0 0 0 0-155.031119L829.529128 32.271868a110.078239 110.078239 0 0 0-155.03112 0L571.792451 134.875026a15.871746 15.871746 0 0 0 0 22.937233l253.435945 253.435945zM983.024272 942.081311H600.771188c-22.425241 0-40.959345 18.534103-40.959345 40.959344 0 22.425241 18.534103 40.959345 40.959345 40.959345H983.024272c22.425241 0 40.959345-18.534103 40.959344-40.959345 0-22.425241-18.534103-40.959345-40.959344-40.959344z" fill="currentColor" p-id="26693"></path></svg>
