<?xml version="1.0" standalone="no"?><!DOCTYPE svg PUBLIC "-//W3C//DTD SVG 1.1//EN" "http://www.w3.org/Graphics/SVG/1.1/DTD/svg11.dtd"><svg fill="currentColor" t="1747014388950" class="icon" viewBox="0 0 1024 1024" version="1.1" xmlns="http://www.w3.org/2000/svg" p-id="13866" xmlns:xlink="http://www.w3.org/1999/xlink" width="200" height="200"><path d="M949.00780206 476.29906133c-20.71261275 0-38.83614815 18.12353539-38.83614815 38.83614814v388.36148148c0 7.76722963-5.17815349 12.94538311-12.94538191 12.94538313H120.50330905c-7.76722963 0-12.94538311-5.17815349-12.94538313-12.94538313V126.773728c0-7.76722963 5.17815349-12.94538311 12.94538313-12.94538191h388.36148148c20.71261275 0 38.83614815-18.12353539 38.83614814-38.83614815s-18.12353539-38.83614815-38.83614814-38.83614815H120.50330905c-49.19245392 0-90.61767941 41.42522429-90.61767942 90.61767821v776.72296295c0 49.19245392 41.42522429 90.61767941 90.61767942 90.61767942h776.72296295c49.19245392 0 90.61767941-41.42522429 90.61767821-90.61767942V515.13520947c0-20.71261275-18.12353539-38.83614815-38.83614815-38.83614814z" p-id="13867"></path><path d="M405.30172799 455.58644979l-38.83614815 152.75551524c-2.58907614 12.94538311 0 28.47984238 10.35630699 36.247072 7.76722963 7.76722963 18.12353539 10.35630577 28.47984116 10.35630578h10.35630698l152.75551524-38.83614814c7.76722963-2.58907614 12.94538311-5.17815349 18.12353662-10.35630577l365.05979258-365.0597926c46.60337778-46.60337778 46.60337778-124.27567408 0-170.87905185-46.60337778-46.60337778-124.27567408-46.60337778-170.87905185 0L415.65803497 437.46291317c-5.17815349 5.17815349-7.76722963 10.35630577-10.35630698 18.12353662z m72.49414401 28.47984116L837.6775111 126.773728c15.53445925-15.53445925 44.01430164-15.53445925 59.5487609 0 15.53445925 15.53445925 15.53445925 44.01430164 0 59.5487609L539.93370905 546.204128l-80.26137366 20.71261275 18.12353661-82.8504498z" p-id="13868"></path></svg>
