<svg width="16" height="16" viewBox="0 0 16 16" fill="none" xmlns="http://www.w3.org/2000/svg">
<path d="M4.37505 9.49052V11.2093H6.09386L11.1631 6.1401L9.44429 4.42129L4.37505 9.49052ZM12.4921 4.81097C12.6706 4.63299 12.671 4.34404 12.493 4.16566L12.4921 4.16473L11.4195 3.09216C11.2415 2.91364 10.9526 2.91325 10.7742 3.09123L10.7733 3.09216L9.93458 3.93086L11.6534 5.64967L12.4921 4.81097ZM3.45831 12.1249H13.5417C13.8472 12.1249 14 12.2777 14 12.5832C14 12.8887 13.8472 13.0415 13.5417 13.0415H3.45831C3.15277 13.0415 3 12.8887 3 12.5832C3 12.2777 3.15277 12.1249 3.45831 12.1249Z" fill="#999999"/>
</svg>
