<svg width="13" height="13" viewBox="0 0 13 13" fill="none" xmlns="http://www.w3.org/2000/svg">
<path d="M5.4248 0.700195C5.7146 0.700195 5.9502 0.935786 5.9502 1.22559C5.94998 1.51521 5.71447 1.75 5.4248 1.75H2.625C1.5211 1.75 1.0498 2.2213 1.0498 3.3252V10.3252C1.0498 11.4291 1.5211 11.9004 2.625 11.9004H9.625C10.7289 11.9004 11.2002 11.4291 11.2002 10.3252V7.52539C11.2002 7.23572 11.435 7.00021 11.7246 7C12.0144 7 12.25 7.23559 12.25 7.52539V10.3252C12.25 12.0185 11.3176 12.9502 9.625 12.9502H2.625C0.9324 12.9502 0 12.0185 0 10.3252V3.3252C0 1.6319 0.9324 0.700195 2.625 0.700195H5.4248ZM11.7246 0.700195C11.7932 0.700195 11.8614 0.714611 11.9258 0.741211C12.0538 0.79441 12.1558 0.896351 12.209 1.02441C12.2356 1.08881 12.25 1.15699 12.25 1.22559V4.72559C12.2498 5.01521 12.0143 5.25 11.7246 5.25C11.4351 5.24979 11.2004 5.01508 11.2002 4.72559V2.49316L5.7959 7.89648C5.69372 7.99925 5.55912 8.0498 5.4248 8.0498C5.29047 8.04976 5.15586 7.99933 5.05371 7.89648C4.84868 7.69145 4.84881 7.35941 5.05371 7.1543L10.457 1.75H8.22461C7.93512 1.74979 7.70041 1.51508 7.7002 1.22559C7.7002 0.935916 7.93499 0.700407 8.22461 0.700195H11.7246Z" fill="#999999"/>
</svg>
