<svg width="12" height="12" viewBox="0 0 12 12" fill="currentColor" xmlns="http://www.w3.org/2000/svg">
<path d="M11.6233 1.49751L10.2981 0.180961C10.2413 0.123843 10.1737 0.0785193 10.0993 0.0475929C10.0248 0.0166665 9.94502 0.000746211 9.86443 0.000746211C9.78383 0.000746211 9.70403 0.0166665 9.6296 0.0475929C9.55517 0.0785193 9.48758 0.123843 9.43072 0.180961C9.37358 0.237898 9.32823 0.305556 9.2973 0.380055C9.26636 0.454554 9.25043 0.534428 9.25043 0.615096C9.25043 0.695764 9.26636 0.775638 9.2973 0.850137C9.32823 0.924636 9.37358 0.992294 9.43072 1.04923L10.2896 1.90979L9.65443 2.57235C9.55478 2.67516 9.49906 2.81273 9.49906 2.95591C9.49906 3.09909 9.55478 3.23666 9.65443 3.33948C9.70187 3.39044 9.75932 3.43105 9.82318 3.45878C9.88704 3.48651 9.95594 3.50075 10.0256 3.50062H10.0316L10.7498 3.4989V9.11823C10.7501 9.21873 10.7107 9.31529 10.6403 9.38699C10.5699 9.4587 10.4741 9.49979 10.3736 9.50137H10.3667C10.2684 9.49957 10.1748 9.45919 10.106 9.38896C10.0372 9.31872 9.99875 9.22426 9.999 9.12594V5.62458C9.999 5.1938 9.82787 4.78066 9.52326 4.47606C9.21865 4.17145 8.80552 4.00032 8.37474 4.00032C8.27547 4.00009 8.18033 3.96056 8.11013 3.89036C8.03994 3.82017 8.0004 3.72503 8.00017 3.62576V1.00123C8.00017 0.449242 7.5519 0.000106812 6.99991 0.000106812H1.75086C1.19887 0.000963944 0.751447 0.449242 0.751447 1.00123V10.6362C0.751447 10.6996 0.700019 10.7528 0.636592 10.7528C0.474849 10.7531 0.319242 10.8147 0.201195 10.9253C0.0831481 11.0359 0.0114581 11.1871 0.00060315 11.3485C-0.00310253 11.4327 0.0102965 11.5168 0.0399915 11.5957C0.0696865 11.6746 0.115062 11.7467 0.173378 11.8075C0.231694 11.8684 0.301741 11.9169 0.379292 11.9499C0.456843 11.983 0.540289 12 0.624592 11.9999H8.11589C8.45874 11.9999 8.74673 11.7256 8.75016 11.3828C8.7513 11.3 8.73597 11.2179 8.70507 11.1411C8.67416 11.0644 8.6283 10.9945 8.57016 10.9357C8.51201 10.8768 8.44273 10.8301 8.36637 10.7983C8.29 10.7664 8.20806 10.7501 8.12531 10.7502C8.0919 10.7502 8.05985 10.7369 8.03622 10.7133C8.01259 10.6897 7.99932 10.6576 7.99932 10.6242V5.62715C7.99898 5.55282 8.02076 5.48007 8.0619 5.41816C8.10303 5.35625 8.16165 5.30797 8.23031 5.27948C8.29896 5.25099 8.37454 5.24357 8.44742 5.25816C8.52031 5.27276 8.5872 5.30871 8.63959 5.36144C8.70816 5.43001 8.75016 5.52429 8.75016 5.62801V9.12766C8.74519 9.34415 8.78353 9.55946 8.86295 9.76093C8.94236 9.9624 9.06124 10.146 9.2126 10.3008C9.36396 10.4557 9.54474 10.5788 9.74433 10.6628C9.94392 10.7468 10.1583 10.7901 10.3748 10.7901C10.5914 10.7901 10.8058 10.7468 11.0054 10.6628C11.205 10.5788 11.3857 10.4557 11.5371 10.3008C11.6885 10.146 11.8073 9.9624 11.8867 9.76093C11.9662 9.55946 12.0045 9.34415 11.9995 9.12766V2.39492C11.9995 2.04264 11.8538 1.72465 11.6224 1.49751H11.6233ZM2.06371 2.06321C2.06371 1.64751 2.3997 1.31237 2.8137 1.31237H6.0005C6.41449 1.31237 6.75048 1.64751 6.75048 2.06236V4.1246C6.75026 4.32344 6.67117 4.51407 6.53057 4.65467C6.38997 4.79528 6.19933 4.87436 6.0005 4.87459H2.8137C2.61486 4.87436 2.42423 4.79528 2.28363 4.65467C2.14303 4.51407 2.06394 4.32344 2.06371 4.1246V2.06236V2.06321ZM11.2504 2.74806L10.7481 2.74891H10.5236L10.8313 2.42921L11.1518 2.09493C11.2161 2.18173 11.2507 2.28693 11.2504 2.39492V2.74806Z"/>
</svg>
