<?xml version="1.0" standalone="no"?><!DOCTYPE svg PUBLIC "-//W3C//DTD SVG 1.1//EN" "http://www.w3.org/Graphics/SVG/1.1/DTD/svg11.dtd"><svg t="1747920097948" class="icon" viewBox="0 0 1024 1024" version="1.1" xmlns="http://www.w3.org/2000/svg" p-id="14730" xmlns:xlink="http://www.w3.org/1999/xlink" width="200" height="200"><path d="M1009.191632 793.5089c-12.075098 21.48958-29.983081 37.862594-51.984318 47.788733L611.839056 1001.855499a240.478639 240.478639 0 0 1-201.4904 0L64.468741 841.195302a111.950481 111.950481 0 0 1-51.37033-47.174746 39.499896 39.499896 0 0 1 15.247369-53.519288 39.499896 39.499896 0 0 1 53.519289 15.247369 30.494738 30.494738 0 0 0 15.247369 14.121724l346.289239 160.660197c41.955848 19.340622 92.405196 19.340622 134.872701 0l345.879914-160.660197a32.848359 32.848359 0 0 0 15.759026-14.735712 39.499896 39.499896 0 0 1 53.519289-15.145038 39.499896 39.499896 0 0 1 15.145037 53.519289h0.613988zM994.45592 512.711714a39.499896 39.499896 0 0 0-53.519288 15.247369 32.848359 32.848359 0 0 1-15.759026 14.735713l-345.879915 160.557865c-41.955848 19.442954-92.302865 19.442954-134.770369 0L98.135751 542.592464a33.257684 33.257684 0 0 1-15.247369-14.121724 39.499896 39.499896 0 0 0-53.519289-15.247369 39.499896 39.499896 0 0 0-15.247369 53.519289c12.075098 21.48958 29.983081 37.862594 51.472662 47.277077l345.879915 160.660197c31.927377 14.633381 66.106043 22.512894 100.694034 22.512894 34.690323 0 68.766658-7.367856 100.796366-22.103569l345.265926-160.557866c22.001237-9.92614 39.909221-26.196822 51.984319-47.788733a39.499896 39.499896 0 0 0-15.247369-53.519289l-0.511657-0.511657zM0 285.024493c0-44.616462 25.173509-83.911695 65.594386-102.331336L410.860313 22.03296a240.171645 240.171645 0 0 1 200.978743 0L957.821302 182.1815c40.420878 18.931297 65.594386 58.328861 65.594386 102.331336 0 44.104806-25.173509 84.014027-65.594386 102.331336l-345.879915 160.14854a240.478639 240.478639 0 0 1-201.4904 0L65.594386 387.867485a112.359807 112.359807 0 0 1-65.594386-102.331336v-0.511656z m78.795128 0c0 5.116567 1.53497 22.512894 19.85228 30.904063l345.879914 160.046209c42.979161 19.95461 91.791208 19.95461 134.872701 0L925.075274 315.928556a34.076335 34.076335 0 0 0 0-61.910458L579.297691 93.971889a160.046209 160.046209 0 0 0-134.258712 0L98.647408 254.018098a34.076335 34.076335 0 0 0-19.954611 31.006395z" fill="currentColor" p-id="14731"></path></svg>