<svg width="13" height="10" viewBox="0 0 13 10" fill="none" xmlns="http://www.w3.org/2000/svg">
<g clip-path="url(#clip0_6385_50456)">
<path fill-rule="evenodd" clip-rule="evenodd" d="M11.81 0.71243H11.4637V0.534323C11.4637 0.239109 11.2321 0 10.9442 0C10.6564 0 10.4248 0.239109 10.4248 0.534323V0.71243H0.969572C0.453555 0.71243 0.0351562 1.14278 0.0351562 1.67421V3.67035C0.0351562 4.20111 0.453555 4.6308 0.969572 4.6308C1.42975 4.6308 1.762 5.08386 1.63559 5.53892L0.754853 9.06545C0.628446 9.51985 0.960697 9.97403 1.42087 9.97403H3.66762C3.97693 9.97403 4.24858 9.76321 4.33364 9.45729L4.93559 7.1243H6.98278C7.50572 7.1243 7.96762 6.78122 8.13278 6.27206L8.66286 4.6308H9.44425C9.62793 4.6308 9.80399 4.55579 9.93407 4.42212L10.4248 3.91837H11.81C12.1925 3.91837 12.5027 3.59933 12.5027 3.20594V1.42486C12.5027 1.03147 12.1932 0.71243 11.81 0.71243ZM7.14555 5.93544C7.12174 6.00668 7.0568 6.05566 6.98104 6.05566H5.21048L5.57628 4.6308H7.56806L7.14555 5.93544ZM10.4248 2.84972H1.42044V2.13729H10.4248V2.84972Z" fill="currentColor"/>
</g>
<defs>
<clipPath id="clip0_6385_50456">
<rect width="12.4675" height="10" fill="white" transform="translate(0.0351562)"/>
</clipPath>
</defs>
</svg>
