<svg width="12" height="12" viewBox="0 0 12 12" fill="none" xmlns="http://www.w3.org/2000/svg">
<path d="M8.38889 6.33333L7.58333 5.52778C7.66667 5.09259 7.54167 4.68518 7.20833 4.30556C6.875 3.92593 6.44444 3.77778 5.91667 3.86111L5.11111 3.05556C5.26852 2.98148 5.42824 2.92593 5.59028 2.88889C5.75231 2.85185 5.92593 2.83333 6.11111 2.83333C6.80555 2.83333 7.39583 3.07639 7.88194 3.5625C8.36805 4.04861 8.61111 4.63889 8.61111 5.33333C8.61111 5.51852 8.59259 5.69213 8.55555 5.85417C8.51852 6.0162 8.46296 6.17593 8.38889 6.33333ZM10.1667 8.08333L9.36111 7.30556C9.71296 7.03704 10.0255 6.74306 10.2986 6.42361C10.5718 6.10417 10.8056 5.74074 11 5.33333C10.537 4.39815 9.87268 3.65509 9.00694 3.10417C8.1412 2.55324 7.17592 2.27778 6.11111 2.27778C5.84259 2.27778 5.5787 2.2963 5.31944 2.33333C5.06018 2.37037 4.80556 2.42593 4.55556 2.5L3.69444 1.63889C4.07407 1.48148 4.46296 1.36343 4.86111 1.28472C5.25926 1.20602 5.67593 1.16667 6.11111 1.16667C7.50926 1.16667 8.75463 1.55324 9.84722 2.32639C10.9398 3.09954 11.7315 4.10185 12.2222 5.33333C12.0093 5.87963 11.7292 6.38657 11.3819 6.85417C11.0347 7.32176 10.6296 7.73148 10.1667 8.08333ZM10.4444 11.5L8.11111 9.19444C7.78704 9.2963 7.46065 9.37269 7.13194 9.42361C6.80324 9.47454 6.46296 9.5 6.11111 9.5C4.71296 9.5 3.46759 9.11343 2.375 8.34028C1.28241 7.56713 0.490741 6.56482 0 5.33333C0.194444 4.84259 0.439815 4.38657 0.736111 3.96528C1.03241 3.54398 1.37037 3.16667 1.75 2.83333L0.222222 1.27778L1 0.5L11.2222 10.7222L10.4444 11.5ZM2.52778 3.61111C2.25926 3.85185 2.01389 4.11574 1.79167 4.40278C1.56944 4.68982 1.37963 5 1.22222 5.33333C1.68518 6.26852 2.34954 7.01157 3.21528 7.5625C4.08102 8.11343 5.0463 8.38889 6.11111 8.38889C6.2963 8.38889 6.47685 8.37732 6.65278 8.35417C6.8287 8.33102 7.00926 8.30556 7.19444 8.27778L6.69444 7.75C6.59259 7.77778 6.49537 7.79861 6.40278 7.8125C6.31018 7.82639 6.21296 7.83333 6.11111 7.83333C5.41667 7.83333 4.82639 7.59028 4.34028 7.10417C3.85417 6.61806 3.61111 6.02778 3.61111 5.33333C3.61111 5.23148 3.61806 5.13426 3.63194 5.04167C3.64583 4.94907 3.66667 4.85185 3.69444 4.75L2.52778 3.61111Z" fill="currentColor"/>
</svg>
