<svg width="10" height="10" viewBox="0 0 10 10" fill="none" xmlns="http://www.w3.org/2000/svg">
<path d="M9.69485 4.25868L8.95461 3.51844C8.91891 3.48375 8.8905 3.4423 8.87103 3.39649C8.85156 3.35069 8.84143 3.30146 8.84124 3.25168V2.19801C8.8409 1.9222 8.73119 1.65778 8.53616 1.46275C8.34113 1.26773 8.07671 1.15801 7.8009 1.15768H6.74723C6.69746 1.15746 6.64824 1.14733 6.60243 1.12786C6.55663 1.10839 6.51517 1.07999 6.48048 1.04431L5.74024 0.304069C5.54342 0.108676 5.27734 -0.000976563 5 -0.000976562C4.72266 -0.000976562 4.45658 0.108676 4.25976 0.304069L3.51952 1.04431C3.48483 1.07999 3.44337 1.10839 3.39757 1.12786C3.35176 1.14733 3.30254 1.15746 3.25277 1.15768H2.1991C1.92329 1.15801 1.65887 1.26773 1.46384 1.46275C1.26881 1.65778 1.1591 1.9222 1.15876 2.19801V3.25168C1.15857 3.30146 1.14844 3.35069 1.12897 3.39649C1.1095 3.4423 1.08109 3.48375 1.04539 3.51844L0.305155 4.25868C0.109697 4.45546 0 4.72156 0 4.99891C0 5.27627 0.109697 5.54237 0.305155 5.73915L1.04539 6.47939C1.08109 6.51407 1.1095 6.55553 1.12897 6.60134C1.14844 6.64714 1.15857 6.69637 1.15876 6.74614V7.79982C1.1591 8.07563 1.26881 8.34004 1.46384 8.53507C1.65887 8.7301 1.92329 8.83982 2.1991 8.84015H3.25277C3.30254 8.84037 3.35176 8.8505 3.39757 8.86997C3.44337 8.88944 3.48483 8.91784 3.51952 8.95352L4.25976 9.69376C4.35695 9.79101 4.47234 9.86817 4.59936 9.9208C4.72637 9.97344 4.86251 10.0005 5 10.0005C5.13749 10.0005 5.27363 9.97344 5.40064 9.9208C5.52766 9.86817 5.64305 9.79101 5.74024 9.69376L6.48048 8.95352C6.51517 8.91784 6.55663 8.88944 6.60243 8.86997C6.64824 8.8505 6.69746 8.84037 6.74723 8.84015H7.8009C8.07671 8.83982 8.34113 8.7301 8.53616 8.53507C8.73119 8.34004 8.8409 8.07563 8.84124 7.79982V6.74614C8.84143 6.69637 8.85156 6.64714 8.87103 6.60134C8.8905 6.55553 8.91891 6.51407 8.95461 6.47939L9.69485 5.73915C9.8903 5.54237 10 5.27627 10 4.99891C10 4.72156 9.8903 4.45546 9.69485 4.25868ZM6.56717 4.34537L4.79327 6.12594C4.72908 6.18602 4.64444 6.21945 4.55652 6.21945C4.4686 6.21945 4.38397 6.18602 4.31978 6.12594L3.43283 5.23232C3.37195 5.17021 3.33805 5.08658 3.33849 4.9996C3.33893 4.91263 3.37368 4.82935 3.43517 4.76785C3.49667 4.70635 3.57996 4.67161 3.66693 4.67117C3.7539 4.67073 3.83753 4.70463 3.89965 4.76551L4.55319 5.41905L6.10035 3.87188C6.16277 3.81096 6.24654 3.77686 6.33376 3.77686C6.42099 3.77686 6.50475 3.81096 6.56717 3.87188C6.59884 3.90265 6.62402 3.93945 6.64121 3.98011C6.6584 4.02078 6.66726 4.06448 6.66726 4.10863C6.66726 4.15278 6.6584 4.19648 6.64121 4.23714C6.62402 4.27781 6.59884 4.31461 6.56717 4.34537Z" fill="currentColor"/>
</svg>
