<svg t="1746752858657" class="icon" viewBox="0 0 1024 1024" version="1.1" xmlns="http://www.w3.org/2000/svg" p-id="27141" width="200" height="200"><path d="M735.146667 312.746667l60.330666-60.288a32 32 0 0 0-45.226666-45.269334L689.877333 267.52a32 32 0 1 0 45.269334 45.226667M252.458667 795.562667l60.330666-60.373334a31.957333 31.957333 0 1 0-45.269333-45.226666l-60.330667 60.330666a32 32 0 1 0 45.269334 45.226667m543.018666 0a32 32 0 0 0 0-45.226667L735.146667 689.92a32 32 0 0 0-45.269334 45.226667l60.373334 60.373333a31.872 31.872 0 0 0 45.226666 0M312.789333 312.746667a32 32 0 0 0 0-45.269334L252.458667 207.189333a32 32 0 1 0-45.269334 45.226667L267.52 312.832a32 32 0 0 0 45.269333 0M917.333333 501.333333a32 32 0 0 0-32-32h-85.333333a32 32 0 0 0 0 64h85.333333a32 32 0 0 0 32-32m-682.666666 0A32 32 0 0 0 202.666667 469.333333h-85.333334a32 32 0 0 0 0 64h85.333334a32 32 0 0 0 32-32m298.666666 384v-85.333333a32 32 0 0 0-64 0v85.333333a32 32 0 1 0 64 0m0-682.666666v-85.333334a32 32 0 0 0-64 0v85.333334a32 32 0 1 0 64 0m160 298.666666c0 105.898667-86.144 192-192 192a192.213333 192.213333 0 0 1-192-192c0-105.856 86.144-192 192-192s192 86.144 192 192" fill="currentColor" p-id="27142"></path></svg>
