<?xml version="1.0" standalone="no"?><!DOCTYPE svg PUBLIC "-//W3C//DTD SVG 1.1//EN" "http://www.w3.org/Graphics/SVG/1.1/DTD/svg11.dtd"><svg t="1749117427424" class="icon" viewBox="0 0 1024 1024" version="1.1" xmlns="http://www.w3.org/2000/svg" p-id="23949" xmlns:xlink="http://www.w3.org/1999/xlink" width="200" height="200"><path d="M898.644992 600.6784a66.7648 66.7648 0 0 0-51.9168-24.6784H517.307392a69.2224 69.2224 0 0 1-69.2224-69.2224V177.4592a66.8672 66.8672 0 0 0-24.576-51.9168 65.024 65.024 0 0 0-53.8624-13.6192A463.872 463.872 0 0 0 76.168192 310.272 462.336 462.336 0 0 0 10.427392 662.1184 459.776 459.776 0 0 0 362.068992 1013.76c32.768 6.7584 65.7408 10.24 98.304 10.24 90.112 0 177.664-25.9072 253.44-75.9808a463.5648 463.5648 0 0 0 198.3488-293.5808 64.4096 64.4096 0 0 0-13.5168-53.76m108.6464-154.112a69.3248 69.3248 0 0 1-52.224 23.9616H622.472192a68.8128 68.8128 0 0 1-68.7104-68.8128V69.12a69.3248 69.3248 0 0 1 78.1312-68.5056 461.6192 461.6192 0 0 1 391.68 391.68 68.608 68.608 0 0 1-16.2816 54.272" fill="currentColor" p-id="23950"></path></svg>