<svg width="11" height="12" viewBox="0 0 11 12" fill="none" xmlns="http://www.w3.org/2000/svg">
<path d="M4.08483 8.67702C3.82528 8.7205 3.08371 8.85093 2.65112 8.67702C2.17528 8.45963 2.17528 7.8882 2.17528 7.84472V7.36646L0 9.63975H2.42865V12L4.90674 9.46584L4.12191 8.63354L4.08483 8.67702ZM8.7382 7.40373L8.69494 7.79503C8.69494 7.96894 8.60843 8.40994 8.34888 8.58385C8.08933 8.75776 7.78034 8.75776 7.56404 8.75776H7.39101C7.13146 8.75776 6.91517 8.62733 6.91517 8.62733L6.78539 8.58385L6.04382 9.45963L8.52191 11.9503L8.56517 9.63354L11 9.59006L8.7382 7.40373ZM6.6927 8.36646C6.77921 8.2795 6.99551 8.36646 7.21798 8.40994C7.39101 8.45342 7.6073 8.54037 7.78652 8.54037C8.3118 8.54037 8.57135 7.92547 8.57135 7.31677C8.57135 7.0559 8.74438 6.92547 9.04719 6.70186L9.30674 6.57143C9.69607 6.31056 9.87528 6.13665 9.87528 5.69565C9.87528 5.47826 9.74551 5.26087 9.61573 5.08074C9.52921 4.95031 9.4427 4.81988 9.39944 4.68944C9.35618 4.55901 9.48596 4.34161 9.57247 4.11801C9.70225 3.90062 9.83202 3.68323 9.83202 3.45963C9.83202 2.93168 9.26348 2.71429 8.8309 2.49689L8.74438 2.45342C8.57135 2.36646 8.57135 2.19255 8.52809 1.88199C8.52809 1.70807 8.48483 1.4472 8.39831 1.2236C8.18202 0.695652 7.65674 0.78882 7.22416 0.875776C7.09438 0.919255 6.96461 0.919255 6.83483 0.919255C6.53202 0.919255 6.30955 0.701863 6.05 0.391304L6.00674 0.304348C5.83371 0.130435 5.70393 0.0434783 5.48146 0C5.30843 0 5.09213 0.0869565 4.91292 0.304348C4.69663 0.521739 4.48034 0.73913 4.38764 0.875776C4.17135 0.832298 3.64607 0.78882 3.21348 0.78882C2.38539 0.832298 2.38539 1.83851 2.38539 2.14286C2.38539 2.40373 2.08258 2.62112 1.51405 2.84472C1.34101 2.93168 1.25449 3.01863 1.21124 3.14907C1.08146 3.40994 1.21124 3.7205 1.47079 4.28571C1.68708 4.76397 1.51405 5.07453 1.25449 5.42236C1.21124 5.46584 1.16798 5.55279 1.12472 5.59627C0.994944 5.81366 1.0382 5.98758 1.08146 6.12422C1.21124 6.47205 1.65 6.65217 1.95281 6.73913C2.29888 6.82609 2.47809 7.13043 2.47809 7.61491C2.47809 8.00621 2.56461 8.4472 3.08989 8.4472C3.26292 8.4472 3.43596 8.4472 3.65843 8.40373C3.87472 8.40373 4.04775 8.36025 4.22697 8.36025C4.31348 8.36025 4.57303 8.57764 4.70281 8.75155C4.9191 8.96894 5.09213 9.14286 5.31461 9.22981C5.35787 9.22981 5.40112 9.27329 5.44438 9.27329C5.86461 9.28571 6.30337 8.85093 6.6927 8.36646ZM2.6882 4.65217C2.6882 3.07453 3.94888 1.80745 5.51854 1.80745C7.0882 1.80745 8.34888 3.07453 8.34888 4.65217C8.34888 6.22981 7.0882 7.49689 5.51854 7.49689C3.94888 7.49689 2.6882 6.2236 2.6882 4.65217ZM5.51854 2.06832C4.12191 2.06832 2.94775 3.19876 2.94775 4.65217C2.94775 6.0559 4.07247 7.23602 5.51854 7.23602C6.91517 7.23602 8.08933 6.10559 8.08933 4.65217C8.08933 3.24224 6.91517 2.06832 5.51854 2.06832Z" fill="currentColor"/>
</svg>
