<svg width="16" height="16" viewBox="0 0 16 16" fill="currentColor" xmlns="http://www.w3.org/2000/svg">
<path d="M3 13.125V12H3.75V8.25C3.75 7.34375 4.02865 6.54688 4.58594 5.85938C5.14323 5.17188 5.86458 4.74479 6.75 4.57812V3.75C6.75 3.54167 6.82292 3.36458 6.96875 3.21875C7.11458 3.07292 7.29167 3 7.5 3C7.70833 3 7.88542 3.07292 8.03125 3.21875C8.17708 3.36458 8.25 3.54167 8.25 3.75V4.57812C9.13542 4.74479 9.85677 5.17188 10.4141 5.85938C10.9714 6.54688 11.25 7.34375 11.25 8.25V12H12V13.125H3ZM7.49672 15C7.18641 15 6.92188 14.8898 6.70313 14.6695C6.48438 14.4492 6.375 14.1844 6.375 13.875H8.625C8.625 14.1875 8.51453 14.4531 8.29359 14.6719C8.07266 14.8906 7.80703 15 7.49672 15Z" fill="#F5F5F5"/>
</svg>
