<svg xmlns="http://www.w3.org/2000/svg" width="10" height="10" viewBox="0 0 10 10" fill="currentColor">
  <path fill-rule="evenodd" clip-rule="evenodd" d="M10 5C10 7.7615 7.7615 10 5 10C2.2385 10 0 7.7615 0 5C0 2.2385 2.2385 0 5 0C7.7615 0 10 2.2385 10 5ZM5 1.625C5.09946 1.625 5.19484 1.66451 5.26516 1.73483C5.33549 1.80516 5.375 1.90054 5.375 2V2.1585C6.19 2.3045 6.875 2.917 6.875 3.75C6.875 3.84946 6.83549 3.94484 6.76516 4.01516C6.69484 4.08549 6.59946 4.125 6.5 4.125C6.40054 4.125 6.30516 4.08549 6.23484 4.01516C6.16451 3.94484 6.125 3.84946 6.125 3.75C6.125 3.411 5.843 3.0515 5.375 2.9235V4.6585C6.19 4.8045 6.875 5.417 6.875 6.25C6.875 7.083 6.19 7.6955 5.375 7.8415V8C5.375 8.09946 5.33549 8.19484 5.26516 8.26517C5.19484 8.33549 5.09946 8.375 5 8.375C4.90054 8.375 4.80516 8.33549 4.73484 8.26517C4.66451 8.19484 4.625 8.09946 4.625 8V7.8415C3.81 7.6955 3.125 7.083 3.125 6.25C3.125 6.15054 3.16451 6.05516 3.23484 5.98484C3.30516 5.91451 3.40054 5.875 3.5 5.875C3.59946 5.875 3.69484 5.91451 3.76516 5.98484C3.83549 6.05516 3.875 6.15054 3.875 6.25C3.875 6.589 4.157 6.9485 4.625 7.076V5.3415C3.81 5.1955 3.125 4.583 3.125 3.75C3.125 2.917 3.81 2.3045 4.625 2.1585V2C4.625 1.90054 4.66451 1.80516 4.73484 1.73483C4.80516 1.66451 4.90054 1.625 5 1.625Z" fill="#666666"/>
</svg>
