<svg width="16" height="16" viewBox="0 0 16 16" fill="none" xmlns="http://www.w3.org/2000/svg">
<path d="M2.58203 10.1313V10.9829C2.58516 12.536 5.02734 13.797 8.04141 13.797C11.0539 13.797 13.4977 12.5376 13.5008 10.9829V10.1313C12.4805 11.2501 10.443 11.9985 8.04141 11.9985C5.63984 11.9985 3.60078 11.2501 2.58203 10.1313Z" fill="currentColor"/>
<path d="M12.5273 8.41104C12.5133 8.41885 12.4977 8.42666 12.4852 8.43447C12.343 8.51885 12.193 8.59854 12.0352 8.6751C11.957 8.7126 11.8742 8.74697 11.793 8.78291C11.6773 8.83291 11.5602 8.88135 11.4383 8.92666C11.3539 8.95791 11.2695 8.98916 11.182 9.01885C11.0195 9.07354 10.8523 9.12197 10.682 9.16729C10.6242 9.18291 10.5695 9.2001 10.5102 9.21416C10.2977 9.26572 10.0758 9.31104 9.85078 9.34854C9.77266 9.3626 9.69297 9.37197 9.61328 9.38447C9.43516 9.41103 9.25547 9.43135 9.07109 9.44854C8.99297 9.45635 8.91484 9.46416 8.83516 9.46885C8.57578 9.4876 8.31328 9.5001 8.04297 9.5001C7.77422 9.5001 7.51016 9.4876 7.25078 9.46885C7.17109 9.4626 7.09297 9.45479 7.01484 9.44854C6.83047 9.43135 6.65078 9.40947 6.47266 9.38447C6.39297 9.37353 6.31328 9.3626 6.23359 9.34854C6.01016 9.31104 5.78984 9.26572 5.57891 9.21416C5.51797 9.19854 5.46016 9.18135 5.40078 9.16572C5.23047 9.12041 5.06328 9.07197 4.90234 9.01728C4.81484 8.9876 4.73047 8.95635 4.64609 8.9251C4.52422 8.87979 4.40703 8.83135 4.29141 8.78135C4.21016 8.74541 4.12734 8.71103 4.04922 8.67353C3.89297 8.59853 3.74141 8.51729 3.59922 8.43291C3.58516 8.4251 3.56953 8.41729 3.55547 8.40947C3.17266 8.17822 2.84297 7.91729 2.58203 7.63135V8.48447C2.58203 8.82354 2.70547 9.14854 2.91953 9.44854C2.92578 9.45791 2.93203 9.46572 2.93828 9.4751C2.98516 9.53916 3.03672 9.60322 3.09297 9.66572C3.09922 9.67353 3.10703 9.68135 3.11328 9.6876C3.34922 9.94385 3.65547 10.1767 4.02266 10.3829C4.04766 10.397 4.07109 10.411 4.09766 10.4251C4.17109 10.4642 4.24609 10.5017 4.32422 10.5392C4.36484 10.5595 4.40703 10.5782 4.44922 10.597C4.52266 10.6298 4.59609 10.6626 4.67109 10.6923C4.72422 10.7142 4.77734 10.7345 4.83203 10.7548C4.90391 10.7813 4.97578 10.8095 5.05078 10.8345C5.12422 10.8595 5.19922 10.8813 5.27422 10.9048C5.36172 10.9313 5.45078 10.9579 5.54297 10.9829C5.65078 11.0126 5.76172 11.0392 5.87422 11.0657C5.93359 11.0782 5.99453 11.0907 6.05391 11.1017C6.14766 11.1204 6.24297 11.1392 6.33984 11.1563C6.40234 11.1673 6.46641 11.1767 6.53047 11.186C6.63047 11.2001 6.73047 11.2142 6.83203 11.2267C6.89453 11.2345 6.95703 11.2407 7.02109 11.247C7.13203 11.2579 7.24609 11.2657 7.36016 11.2735C7.41484 11.2767 7.46953 11.2813 7.52422 11.2845C7.69453 11.2923 7.86641 11.2985 8.03984 11.2985C8.21484 11.2985 8.38516 11.2938 8.55547 11.2845C8.61016 11.2813 8.66484 11.2767 8.71953 11.2735C8.83359 11.2657 8.94609 11.2579 9.05859 11.247C9.12266 11.2407 9.18516 11.2329 9.24766 11.2267C9.34922 11.2142 9.44922 11.2017 9.54922 11.186C9.61328 11.1767 9.67734 11.1673 9.73984 11.1563C9.83672 11.1407 9.93203 11.122 10.0258 11.1017C10.0867 11.0892 10.1477 11.0782 10.2055 11.0657C10.318 11.0407 10.4273 11.0126 10.5367 10.9829C10.6273 10.9579 10.7164 10.9329 10.8055 10.9048C10.8805 10.8813 10.957 10.8595 11.0289 10.8345C11.1039 10.8095 11.1758 10.7813 11.2477 10.7548C11.3023 10.7345 11.3555 10.7142 11.4086 10.6923C11.4852 10.661 11.5586 10.6298 11.6305 10.597C11.6727 10.5782 11.7133 10.5579 11.7555 10.5392C11.832 10.5017 11.9086 10.4642 11.982 10.4251L12.057 10.3829C12.4242 10.1767 12.7305 9.94385 12.9664 9.6876C12.9742 9.67979 12.9805 9.67197 12.9883 9.66416C13.0445 9.60166 13.0961 9.53916 13.143 9.4751C13.1492 9.46572 13.1555 9.45635 13.1617 9.44854C13.3758 9.14697 13.4992 8.82354 13.4992 8.48447V7.63291C13.2398 7.92041 12.9117 8.18135 12.5273 8.41104Z" fill="currentColor"/>
<path d="M13.5008 5.01714C13.5008 3.46089 11.057 2.19995 8.04141 2.19995C5.02578 2.19995 2.58203 3.46089 2.58203 5.01714V5.98745C2.58203 6.32651 2.70547 6.65151 2.91953 6.95151C2.92578 6.96089 2.93203 6.9687 2.93828 6.97808C2.98516 7.04214 3.03672 7.1062 3.09297 7.1687C3.09922 7.17651 3.10703 7.18433 3.11328 7.19058C3.34922 7.44683 3.65547 7.67964 4.02266 7.88589L4.09766 7.92808C4.17109 7.96714 4.24609 8.00464 4.32422 8.04214C4.36484 8.06245 4.40547 8.0812 4.44766 8.09995C4.52109 8.13276 4.59453 8.16558 4.67109 8.19683C4.72266 8.2187 4.77734 8.23745 4.83047 8.25776C4.90391 8.28589 4.97578 8.31245 5.05078 8.33901C5.12266 8.36401 5.19766 8.38589 5.27266 8.40776C5.34141 8.42808 5.40703 8.44995 5.47734 8.4687C5.48047 8.4687 5.48203 8.47026 5.48516 8.47026C5.50547 8.47651 5.52734 8.4812 5.54922 8.48589C5.65547 8.51401 5.76328 8.54214 5.87422 8.56714C5.89766 8.57183 5.92109 8.57808 5.94609 8.58276L5.99766 8.59214C6.01641 8.59526 6.03516 8.59839 6.05391 8.60308C6.14766 8.62183 6.24297 8.64058 6.33984 8.65776C6.37266 8.66401 6.40391 8.67026 6.43828 8.67495C6.46953 8.67964 6.50234 8.68276 6.53359 8.68745C6.63203 8.70151 6.73203 8.71558 6.83203 8.72651C6.87266 8.7312 6.91172 8.73745 6.95234 8.74214C6.97734 8.74526 7.00234 8.74526 7.02734 8.74839C7.13672 8.75933 7.24766 8.76714 7.36016 8.77495C7.40391 8.77808 7.44453 8.78276 7.48828 8.78433C7.50234 8.78433 7.51484 8.78433 7.52891 8.78589C7.69766 8.7937 7.86797 8.79839 8.04141 8.79839C8.21484 8.79839 8.38516 8.7937 8.55391 8.78589C8.56797 8.78589 8.58047 8.78589 8.59453 8.78433C8.63828 8.78276 8.67891 8.77808 8.72266 8.77495C8.83516 8.76714 8.94609 8.75933 9.05547 8.74839C9.08047 8.74526 9.10547 8.74526 9.13047 8.74214C9.17109 8.73745 9.21016 8.7312 9.25078 8.72651C9.35078 8.71401 9.45078 8.70151 9.54922 8.68745C9.58047 8.68276 9.61328 8.67964 9.64453 8.67495C9.67734 8.67026 9.71016 8.66245 9.74297 8.65776C9.83984 8.64214 9.93516 8.62339 10.0289 8.60308C10.0477 8.59995 10.0664 8.59683 10.0836 8.59214C10.1008 8.58901 10.1195 8.58589 10.1383 8.5812C10.1617 8.57651 10.1852 8.57026 10.2102 8.56558C10.3211 8.54058 10.4289 8.51245 10.5352 8.48433C10.5555 8.47808 10.5789 8.47339 10.5992 8.4687C10.6023 8.4687 10.6039 8.46714 10.607 8.46714C10.6773 8.44839 10.743 8.42651 10.8117 8.4062C10.8867 8.38276 10.9617 8.36089 11.0336 8.33745C11.1086 8.31245 11.1805 8.28433 11.2539 8.2562C11.307 8.23589 11.3617 8.21558 11.4133 8.19526C11.4898 8.16401 11.5633 8.1312 11.6367 8.09839C11.6789 8.07964 11.7195 8.05933 11.7602 8.04058C11.8367 8.00308 11.9133 7.96558 11.9867 7.92651C12.0133 7.91245 12.0367 7.89839 12.0617 7.88433C12.4289 7.67808 12.7352 7.44526 12.9711 7.18901C12.9789 7.1812 12.9852 7.17339 12.993 7.16558C13.0492 7.10308 13.1008 7.04058 13.1477 6.97651C13.1539 6.96714 13.1602 6.95776 13.1664 6.94995C13.3805 6.64839 13.5039 6.32495 13.5039 5.98589V5.01714H13.5008Z" fill="currentColor"/>
</svg>
