<svg width="12" height="16" viewBox="0 0 12 16" fill="currentColor" xmlns="http://www.w3.org/2000/svg">
<path d="M5.74219 0.0648049C5.70175 0.0832105 0.666577 2.32949 0.52203 2.3903C0.304835 2.48313 0.00825228 2.64238 0.00825228 3.16654C0.00825228 7.62068 0.253158 9.66449 1.42301 11.7307L0.218706 13.0191C0.149391 13.0928 0.094387 13.1804 0.0568542 13.2769C0.0193215 13.3733 0 13.4768 0 13.5813C0 13.6858 0.0193215 13.7892 0.0568542 13.8857C0.094387 13.9822 0.149391 14.0697 0.218706 14.1434C0.510796 14.4563 1.00285 14.4563 1.29569 14.1434L2.91042 12.4181C3.17255 12.1412 11.1773 3.58586 11.2425 3.51544L11.7809 2.96568C11.9214 2.81175 12 2.60528 12 2.3903C12 2.17533 11.9214 1.96886 11.7809 1.81493C11.6359 1.66714 11.4421 1.5866 11.2417 1.59086C11.1462 1.58906 11.0514 1.60798 10.9629 1.6465C10.8745 1.68501 10.7943 1.74232 10.7272 1.81493L10.5399 2.01499L6.32712 0.0648049C6.2348 0.0220564 6.13526 0 6.03465 0C5.93404 0 5.8345 0.0220564 5.74219 0.0648049ZM11.9914 4.99109L3.37851 14.1698C4.06733 14.8292 4.82062 15.4074 5.62535 15.8944C5.85528 16.0352 6.14437 16.0352 6.3743 15.8944C8.98064 14.3019 10.5175 12.4237 11.2889 10.0686C11.7428 8.6826 11.9367 7.12533 11.9914 4.99109Z" fill="#666666"/>
</svg>
