<?xml version="1.0" standalone="no"?><!DOCTYPE svg PUBLIC "-//W3C//DTD SVG 1.1//EN" "http://www.w3.org/Graphics/SVG/1.1/DTD/svg11.dtd"><svg t="1747898512875" class="icon" viewBox="0 0 1024 1024" version="1.1" xmlns="http://www.w3.org/2000/svg" p-id="16065" xmlns:xlink="http://www.w3.org/1999/xlink" width="200" height="200"><path d="M923.2 809.6c-12.8 3.2-44.8-28.8-67.2-83.2-16 60.8-48 112-86.4 153.6 51.2 12.8 83.2 38.4 83.2 67.2 0 41.6-73.6 76.8-160 76.8-67.2 0-124.8-19.2-147.2-48h-32c-12.8 0-22.4 0-35.2-3.2-25.6 28.8-83.2 48-150.4 48-89.6 0-160-35.2-160-76.8 0-32 35.2-57.6 89.6-70.4-41.6-41.6-70.4-92.8-86.4-153.6-22.4 57.6-54.4 86.4-67.2 86.4-19.2-3.2-38.4-60.8-25.6-147.2 6.4-57.6 38.4-128 70.4-150.4v-19.2c6.4-54.4 16-102.4 38.4-105.6-3.2-19.2-6.4-38.4-6.4-60.8C174.4 144 331.2 0 510.4 0s336 144 336 326.4c0 19.2-3.2 41.6-6.4 60.8 19.2 0 35.2 48 41.6 105.6v22.4c32 25.6 60.8 92.8 67.2 150.4 9.6 83.2-6.4 140.8-25.6 144z" p-id="16066" fill="currentColor"></path></svg>