<svg xmlns="http://www.w3.org/2000/svg" width="12" height="12" viewBox="0 0 12 12" fill="currentColor">
  <path
    d="M6 0C2.6862 0 0 2.6862 0 6C0 9.3138 2.6862 12 6 12C9.3138 12 12 9.3138 12 6C12 2.6862 9.3138 0 6 0ZM6 8.85C4.911 8.85 3.93306 8.24345 3.44766 7.26665C3.33666 7.04405 3.42779 6.77397 3.65039 6.66357C3.87419 6.55257 4.14365 6.64386 4.25405 6.86646C4.58585 7.53486 5.2548 7.95 6 7.95C7.0752 7.95 7.95 7.0752 7.95 6C7.95 4.9248 7.0752 4.05 6 4.05C5.56006 4.05 5.14707 4.20011 4.81494 4.45722C4.6823 4.5599 4.766 4.7502 4.93374 4.7502C5.18214 4.7502 5.38374 4.9518 5.38374 5.2002C5.38374 5.4486 5.18214 5.6502 4.93374 5.6502H3.6C3.3516 5.6502 3.15 5.4486 3.15 5.2002V3.86704C3.15 3.61864 3.3516 3.41704 3.6 3.41704C3.8484 3.41704 4.05 3.61864 4.05 3.86704C4.05 3.88931 4.0767 3.90093 4.09324 3.88602C4.60544 3.42457 5.27946 3.15 6 3.15C7.5714 3.15 8.85 4.4286 8.85 6C8.85 7.5714 7.5714 8.85 6 8.85Z"
    fill="#999999"/>
</svg>
