<svg width="12" height="12" viewBox="0 0 12 12" fill="none" xmlns="http://www.w3.org/2000/svg">
<path d="M6.24793 0H5.75207C2.58082 0 0 1.55219 0 3.45948V8.54052C0 10.4478 2.58082 12 5.75207 12H6.24793C9.41918 12 12 10.4478 12 8.54052V3.45948C11.9977 1.55219 9.41918 0 6.24793 0ZM10.72 3.45948V4.37776H6.63771V0.78095C8.92101 0.900243 10.72 2.05572 10.72 3.45948ZM5.35998 0.78095V4.37776H1.27772V3.45948C1.27772 2.05572 3.07669 0.900243 5.35998 0.78095ZM6.24793 11.2315H5.75207C3.28657 11.2315 1.28003 10.0247 1.28003 8.5419V5.14623H10.7223V8.54052C10.72 10.0247 8.71343 11.2315 6.24793 11.2315Z" fill="currentColor"/>
</svg>
