<?xml version="1.0" standalone="no"?><!DOCTYPE svg PUBLIC "-//W3C//DTD SVG 1.1//EN" "http://www.w3.org/Graphics/SVG/1.1/DTD/svg11.dtd"><svg t="1748274508616" class="icon" viewBox="0 0 1024 1024" version="1.1" xmlns="http://www.w3.org/2000/svg" p-id="15237" xmlns:xlink="http://www.w3.org/1999/xlink" width="200" height="200"><path d="M710.656 241.066667a119.04 119.04 0 1 0 0-238.08 119.04 119.04 0 0 0 0 238.08z" fill="#F6465D" p-id="15238"></path><path d="M906.496 206.762667c-68.266667 95.744-159.914667 106.837333-258.389333 48.384-6.741333-4.010667-36.437333-20.394667-43.008-24.32-158.549333-94.037333-316.842667-57.173333-422.997334 91.477333-45.056 63.232 59.221333 123.221333 103.850667 60.672 54.869333-76.8 124.586667-98.986667 200.874667-74.666667-39.082667 67.754667-73.216 135.168-121.344 230.912-48.213333 95.744-154.624 172.202667-256.853334 112.384-73.813333-43.093333-140.288 62.890667-66.816 105.813334 139.605333 81.578667 303.274667 31.573333 386.816-74.581334a65.706667 65.706667 0 0 0 9.386667 4.181334c68.266667 23.722667 157.696 87.04 184.917333 109.482666 27.306667 22.442667 74.154667 136.789333 101.888 194.218667 33.792 69.632 142.677333 18.944 108.8-51.029333-31.488-65.194667-84.394667-195.242667-125.696-228.181334-33.024-26.368-97.28-75.434667-151.893333-103.338666 36.949333-71.424 75.349333-142.08 115.712-211.541334 128.853333 39.509333 251.392-6.997333 338.602667-129.194666 45.141333-63.232-59.221333-123.136-103.850667-60.586667z" fill="currentColor" p-id="15239"></path></svg>