<svg width="12" height="12" viewBox="0 0 12 12" fill="currentColor" xmlns="http://www.w3.org/2000/svg">
<path d="M11.3349 8.05789C12.1329 8.78507 12.1329 9.54305 11.7535 9.8591C11.4489 10.1122 10.615 10.2073 10.462 9.73321C10.234 9.22834 9.70304 8.75427 9.28453 8.46902C9.20801 8.43688 8.75358 8.18377 8.37254 8.15297C8.56306 8.311 8.98001 9.227 9.05653 9.48011C9.20801 9.95418 9.24705 10.6492 9.17053 11.2813C9.05653 12.2924 7.19664 12.1652 7.34811 11.3443C7.31064 11.1233 7.31064 9.38503 6.74064 8.84801C6.17065 8.43688 4.61528 6.57273 3.81729 6.31963C3.0193 6.06652 2.86782 6.31963 1.76687 7.26777C0.589411 8.08869 -0.360056 7.01466 0.133417 6.50979C0.664369 5.94063 1.69036 5.18265 2.63982 4.77152C3.05678 4.6135 3.20981 4.6135 3.66581 4.58136C5.37422 4.54922 6.43769 4.04435 6.43769 4.04435C6.43769 4.04435 7.38716 3.34931 8.03367 2.59133C8.8301 1.83335 10.159 2.81229 9.51409 3.63455C9.17209 4.39253 7.3122 5.4987 7.3122 5.4987C7.3122 5.4987 7.84471 5.90849 8.41314 6.1616C9.01905 6.41471 9.93104 6.76156 11.3349 8.05789ZM4.38728 3.85418C3.09582 3.85418 2.07139 3.00112 2.07139 1.92709C2.06983 0.885203 3.09582 0 4.38728 0C5.6397 0 6.66569 0.885203 6.66569 1.92709C6.66569 3.00112 5.6397 3.85418 4.38728 3.85418ZM1.46704 10.6773C1.56699 10.5595 1.52482 10.3961 1.37647 10.3225C1.13286 10.2019 1.21094 9.89392 1.49047 9.86445L2.61171 9.74928C2.72259 9.73857 2.81472 9.67697 2.85376 9.58992L3.15047 8.92033C3.22855 8.74489 3.5034 8.70204 3.65175 8.84265L6.38928 11.442C6.55637 11.6014 6.42207 11.8505 6.16753 11.8518L1.01573 11.8773C0.773683 11.8786 0.631575 11.6523 0.772121 11.4875L1.46704 10.6773Z" />
</svg>
