<svg width="12" height="12" viewBox="0 0 12 12" fill="none" xmlns="http://www.w3.org/2000/svg">
<mask id="mask0_5410_95680" style="mask-type:luminance" maskUnits="userSpaceOnUse" x="1" y="1" width="10" height="10">
<path d="M1 1H11V10.9999H1V1Z" fill="white"/>
</mask>
<g mask="url(#mask0_5410_95680)">
<path fill-rule="evenodd" clip-rule="evenodd" d="M5.99999 9.44615C4.0998 9.44615 2.55383 7.90018 2.55383 5.99996C2.55383 4.09975 4.0998 2.5538 5.99999 2.5538C7.90025 2.5538 9.4462 4.09975 9.4462 5.99996C9.4462 7.90018 7.90025 9.44615 5.99999 9.44615ZM11 5.99996C11 5.83109 10.8215 5.64317 10.6488 5.46148C10.475 5.27853 10.2952 5.08937 10.2352 4.86481C10.1727 4.63104 10.2346 4.371 10.2945 4.11954C10.3511 3.88169 10.4096 3.63574 10.3308 3.49955C10.2497 3.35935 10.0046 3.28681 9.76756 3.21661C9.52185 3.14389 9.26783 3.06868 9.09959 2.90044C8.93135 2.7322 8.85613 2.47815 8.78339 2.23247C8.71319 1.99537 8.64062 1.75028 8.50042 1.66914C8.45579 1.64333 8.39773 1.63078 8.32298 1.63078C8.19445 1.63078 8.0419 1.66706 7.88043 1.70555C7.70422 1.74747 7.52205 1.79085 7.34838 1.79085C7.27043 1.79085 7.20069 1.78233 7.13519 1.76484C6.91063 1.70479 6.72147 1.52505 6.53855 1.35123C6.3568 1.17854 6.16889 1 5.99999 1C5.83114 1 5.64322 1.17854 5.46148 1.35123C5.27858 1.52505 5.0894 1.70477 4.86483 1.76484C4.79933 1.78233 4.7296 1.79085 4.65167 1.79085C4.47797 1.79085 4.29578 1.74747 4.11959 1.70555C3.9581 1.66706 3.80557 1.63078 3.67704 1.63078C3.60227 1.63078 3.54423 1.64333 3.49958 1.66914C3.3594 1.75028 3.28683 1.99537 3.21663 2.23247C3.14391 2.47815 3.06868 2.7322 2.90046 2.90041C2.73222 3.06868 2.47817 3.14389 2.23251 3.21661C1.99542 3.28681 1.7503 3.35935 1.66919 3.49955C1.59038 3.63577 1.64896 3.88169 1.70555 4.11957C1.76545 4.371 1.82733 4.63104 1.76486 4.86481C1.70484 5.08937 1.5251 5.27853 1.35126 5.46145C1.17857 5.64317 1 5.83109 1 5.99996C1 6.16886 1.17859 6.35675 1.35128 6.5385C1.5251 6.72144 1.70484 6.91058 1.76486 7.13512C1.82733 7.36893 1.76545 7.62893 1.70555 7.88041C1.64893 8.11826 1.59038 8.36419 1.66919 8.5004C1.7503 8.64057 1.99542 8.71314 2.23251 8.78334C2.47817 8.85606 2.73222 8.93127 2.90046 9.09951C3.06868 9.26776 3.14391 9.5218 3.21663 9.76749C3.28681 10.0046 3.3594 10.2497 3.49958 10.3308C3.54423 10.3566 3.60227 10.3692 3.67702 10.3692C3.80557 10.3692 3.9581 10.3329 4.11959 10.2944C4.29578 10.2525 4.47797 10.2091 4.65169 10.2091C4.7296 10.2091 4.79935 10.2176 4.86485 10.2351C5.08942 10.2952 5.27858 10.4749 5.4615 10.6487C5.64322 10.8214 5.83114 11 5.99999 11C6.16889 11 6.3568 10.8214 6.53855 10.6487C6.72147 10.4749 6.91063 10.2952 7.13517 10.2351C7.20069 10.2176 7.27043 10.2091 7.34836 10.2091C7.52205 10.2091 7.70424 10.2525 7.88046 10.2944C8.04192 10.3329 8.19445 10.3692 8.32298 10.3692C8.39773 10.3692 8.45579 10.3566 8.50042 10.3308C8.64062 10.2497 8.71319 10.0046 8.78339 9.76749C8.85613 9.5218 8.93135 9.26776 9.09959 9.09951C9.2678 8.93127 9.52185 8.85609 9.76753 8.78334C10.0046 8.71317 10.2497 8.64057 10.3308 8.50042C10.4096 8.36421 10.3511 8.11826 10.2945 7.88041C10.2346 7.62893 10.1727 7.36893 10.2352 7.13512C10.2952 6.91058 10.4749 6.72144 10.6487 6.5385C10.8215 6.35675 11 6.16886 11 5.99996Z" fill="#FFAD00"/>
</g>
<path fill-rule="evenodd" clip-rule="evenodd" d="M7.11507 7.71595L5.99998 7.1297L4.88488 7.71595L5.09786 6.47427L4.19575 5.5949L5.44245 5.41375L5.99998 4.284L6.55755 5.41375L7.80428 5.5949L6.90214 6.47427L7.11507 7.71595ZM5.99998 3C4.34578 3 3 4.34578 3 5.99999C3 7.65418 4.34578 9 5.99998 9C7.65422 9 9 7.65418 9 5.99999C9 4.34578 7.65422 3 5.99998 3Z" fill="#FFC803"/>
</svg>
