<?xml version="1.0" standalone="no"?><!DOCTYPE svg PUBLIC "-//W3C//DTD SVG 1.1//EN" "http://www.w3.org/Graphics/SVG/1.1/DTD/svg11.dtd"><svg t="1747930780515" class="icon" viewBox="0 0 1024 1024" version="1.1" xmlns="http://www.w3.org/2000/svg" p-id="15056" xmlns:xlink="http://www.w3.org/1999/xlink" width="200" height="200"><path d="M130.3552 929.792c0-28.2624 21.4016-51.2 47.7184-51.2H845.824c16.9984 0 32.768 9.8304 41.3696 25.6a54.4768 54.4768 0 0 1 0 51.2 47.2064 47.2064 0 0 1-41.3696 25.6H178.0736c-26.3168 0-47.7184-22.8352-47.7184-51.2zM512 42.7008c13.824 0 27.0336 6.144 35.84 16.5888l206.848 245.76 175.3088-115.8144a47.104 47.104 0 0 1 52.224 0.2048 46.08 46.08 0 0 1 19.456 48.128L884.736 769.536a46.592 46.592 0 0 1-45.6704 36.352H184.832a46.592 46.592 0 0 1-45.568-36.352L22.4256 237.568a46.08 46.08 0 0 1 19.3536-48.128 47.104 47.104 0 0 1 52.224-0.2048l175.3088 115.712L476.16 59.392A47.104 47.104 0 0 1 512 42.7008z m-12.3904 365.2608a113.2544 113.2544 0 0 0-104.0384 62.976 152.6784 152.6784 0 0 0-15.5648 70.8608c0 27.136 5.12 50.9952 15.5648 71.2704 10.4448 20.3776 24.7808 35.84 43.008 46.6944 18.1248 10.752 38.5024 16.1792 61.0304 16.1792 22.528 0 42.7008-5.4272 60.8256-16.384 18.1248-10.8544 32.4608-26.4192 43.008-46.592 10.4448-20.2752 15.7696-44.032 15.7696-71.168 0-27.0336-5.2224-50.5856-15.6672-70.8608a113.2544 113.2544 0 0 0-103.936-62.976z m-140.288 4.1984H160.9728v33.792h79.872v226.0992h38.2976V445.952h80.1792v-33.792z m390.144 0h-83.0464v259.8912h37.888V576.512h45.1584c18.7392 0 35.2256-3.3792 49.5616-10.24a79.0528 79.0528 0 0 0 33.28-28.9792 77.824 77.824 0 0 0 11.8784-42.8032 78.6432 78.6432 0 0 0-11.8784-42.9056 78.4384 78.4384 0 0 0-33.4848-29.0816 113.664 113.664 0 0 0-49.3568-10.24z m-249.856 30.5152c15.872 0 29.696 4.096 41.8816 12.4928 12.0832 8.192 21.2992 19.8656 27.8528 34.816 6.4512 14.848 9.728 32.1536 9.728 51.8144 0 19.5584-3.2768 36.864-9.728 51.9168a79.872 79.872 0 0 1-27.648 35.0208 71.9872 71.9872 0 0 1-42.0864 12.3904 71.168 71.168 0 0 1-41.984-12.3904 80.4864 80.4864 0 0 1-27.4432-35.0208 129.8432 129.8432 0 0 1-9.728-51.9168c0-19.6608 3.1744-36.9664 9.728-51.9168a80.0768 80.0768 0 0 1 27.648-34.816 71.3728 71.3728 0 0 1 41.7792-12.288z m245.248 2.56c18.6368 0 33.1776 4.5056 43.52 13.4144 10.24 9.0112 15.36 20.992 15.36 35.84 0 14.9504-5.12 26.8288-15.36 35.7376-10.3424 8.9088-24.8832 13.312-43.52 13.312h-40.448v-98.304z" fill="currentColor" p-id="15057"></path></svg>