<?xml version="1.0" standalone="no"?><!DOCTYPE svg PUBLIC "-//W3C//DTD SVG 1.1//EN" "http://www.w3.org/Graphics/SVG/1.1/DTD/svg11.dtd"><svg fill="currentColor" t="1747382702000" class="icon" viewBox="0 0 1024 1024" version="1.1" xmlns="http://www.w3.org/2000/svg" p-id="13758" xmlns:xlink="http://www.w3.org/1999/xlink" width="200" height="200"><path d="M559.0016 486.8096L482.304 467.968a53.6576 53.6576 0 0 1-40.5504-51.9168c0-29.4912 23.9616-53.4528 53.4528-53.4528h33.3824c27.2384 0 50.0736 20.48 53.0432 47.616a35.7376 35.7376 0 1 0 70.9632-7.9872A124.6208 124.6208 0 0 0 546.7136 292.864v-18.944a35.7376 35.7376 0 0 0-71.3728 0v19.2512a124.8256 124.8256 0 0 0-10.24 244.1216l76.5952 18.944a53.5552 53.5552 0 0 1-12.9024 105.472h-33.3824c-27.2384 0-50.0736-20.5824-53.1456-47.7184a35.7376 35.7376 0 1 0-70.9632 7.8848c6.3488 56.5248 49.5616 100.352 104.0384 109.2608v19.1488a35.7376 35.7376 0 0 0 71.3728 0V731.136a124.1088 124.1088 0 0 0 106.9056-123.0848c0-57.344-38.912-107.1104-94.5152-121.2416M512 952.5248A441.0368 441.0368 0 0 1 71.4752 512 441.0368 441.0368 0 0 1 512 71.4752 441.0368 441.0368 0 0 1 952.5248 512 441.1392 441.1392 0 0 1 512 952.5248M512 0C229.6832 0 0 229.6832 0 512s229.6832 512 512 512 512-229.6832 512-512-229.6832-512-512-512" fill="#848E9C" p-id="13759"></path></svg>
