<?xml version="1.0" standalone="no"?><!DOCTYPE svg PUBLIC "-//W3C//DTD SVG 1.1//EN" "http://www.w3.org/Graphics/SVG/1.1/DTD/svg11.dtd"><svg t="1751375310074" class="icon" viewBox="0 0 1024 1024" version="1.1" xmlns="http://www.w3.org/2000/svg" p-id="14832" xmlns:xlink="http://www.w3.org/1999/xlink" width="200" height="200"><path d="M508.578987 35.754667a10.837333 10.837333 0 0 0 5.461333-2.133334c4.437333-2.816 10.24-7.68 17.493333-14.762666 8.789333-7.68 17.493333-13.312 26.282667-16.810667 8.704-3.498667 20.394667-2.56 34.986667 3.157333 7.253333 2.133333 13.056 5.12 17.408 8.96l12.544 11.093334A65.877333 65.877333 0 0 0 635.89632 34.133333a38.912 38.912 0 0 0 18.005333 3.754667 48.64 48.64 0 0 0 18.602667-3.157333c5.12-2.133333 9.984-4.096 14.762667-5.802667a70.570667 70.570667 0 0 1 14.165333-3.754667 37.973333 37.973333 0 0 1 16.981333 2.133334 25.6 25.6 0 0 1 14.762667 12.117333c2.56 5.290667 3.242667 10.752 2.133333 16.384a49.066667 49.066667 0 0 1-22.357333 30.549333c-13.824 8.448-24.405333 17.066667-31.744 25.770667a645.376 645.376 0 0 0-33.877333 44.8 273.237333 273.237333 0 0 0-11.946667 19.029333c-4.437333 7.68-9.130667 15.104-14.250667 22.101334h-226.133333a730.197333 730.197333 0 0 0-15.36-24.234667 356.522667 356.522667 0 0 0-14.165333-21.077333 441.941333 441.941333 0 0 1-13.056-18.944 154.794667 154.794667 0 0 0-24.576-27.989334 346.453333 346.453333 0 0 0-26.794667-21.589333 48.810667 48.810667 0 0 1-19.626667-25.856C277.666987 47.530667 280.909653 38.229333 291.149653 30.464a25.088 25.088 0 0 1 17.408-4.266667c6.570667 0.768 13.482667 2.218667 20.821334 4.266667l21.333333 6.314667a36.010667 36.010667 0 0 0 19.029333 1.109333 43.264 43.264 0 0 0 23.04-11.093333c5.12-5.290667 13.738667-11.776 26.197334-19.456a46.592 46.592 0 0 1 31.573333-5.802667 46.933333 46.933333 0 0 1 26.282667 11.093333c2.901333 3.413333 5.973333 6.4 9.301333 8.874667 3.242667 2.474667 6.741333 4.778667 10.410667 6.826667 3.584 2.816 7.68 5.290667 11.946666 7.424z m123.477333 210.773333c8.789333 11.264 19.626667 23.552 32.768 36.864 10.922667 11.946667 24.405333 25.514667 40.448 40.618667s34.645333 31.061333 55.722667 47.957333c17.493333 14.762667 35.498667 32.085333 54.101333 52.138667a300.544 300.544 0 0 1 77.568 162.304c5.461333 34.730667 4.522667 73.557333-2.730667 116.48A286.208 286.208 0 0 1 774.13632 884.053333a391.424 391.424 0 0 1-114.176 55.296c-44.117333 13.653333-94.122667 20.565333-150.186667 20.565334-57.6 0-108.629333-7.936-153.002666-23.722667a376.32 376.32 0 0 1-113.066667-61.610667 313.429333 313.429333 0 0 1-73.813333-84.906666 293.546667 293.546667 0 0 1-38.741334-192.256 341.589333 341.589333 0 0 1 72.106667-165.546667 436.053333 436.053333 0 0 1 60.586667-62.122667c18.944-16.213333 36.096-31.488 51.370666-45.824 15.36-14.506667 28.074667-27.562667 38.229334-39.509333 12.373333-13.397333 23.381333-26.026667 32.768-37.973333h245.845333zM532.642987 414.464a32.426667 32.426667 0 0 0-33.024 31.829333v8.192c-43.946667 9.386667-76.970667 47.530667-76.970667 93.098667 0 21.333333 7.338667 42.154667 20.48 58.368 13.226667 16.810667 32.170667 29.013333 53.504 34.218667l55.722667 13.653333a31.402667 31.402667 0 1 1 14.762666 53.418667 31.744 31.744 0 0 1-22.357333 9.130666h-24.234667a31.914667 31.914667 0 0 1-31.658666-28.245333 32.597333 32.597333 0 0 0-36.437334-28.16 32.170667 32.170667 0 0 0-29.184 35.157333c4.778667 41.472 36.181333 73.984 76.373334 82.517334v8.277333a32.426667 32.426667 0 0 0 33.024 31.829333 32.426667 32.426667 0 0 0 33.024-31.829333v-8.192c18.261333-3.925333 34.986667-12.629333 48.469333-25.856 18.432-18.005333 28.586667-41.898667 28.586667-67.242667 0-43.690667-30.378667-81.749333-74.069334-92.586666L513.01632 578.56a31.914667 31.914667 0 0 1-24.32-30.976c0-17.493333 14.250667-31.744 31.829333-31.744h24.234667c16.213333 0 29.866667 12.202667 31.744 28.330667 1.962667 17.493333 17.92 29.866667 36.437333 28.16a32.256 32.256 0 0 0 29.184-35.242667 96.426667 96.426667 0 0 0-76.458666-82.517333V446.293333a32.426667 32.426667 0 0 0-33.024-31.829333z" fill="currentColor" p-id="14833"></path></svg>