<svg width="12" height="12" viewBox="0 0 12 12" fill="none" xmlns="http://www.w3.org/2000/svg">
<path d="M2.68582 1.91171C2.71456 1.96929 2.75287 2.01727 2.80077 2.05566C2.84866 2.09405 2.91571 2.16123 3.01149 2.2572L3.30843 2.5547C3.42337 2.66987 3.53831 2.80422 3.67241 2.93858H6.29693C6.42146 2.80422 6.54598 2.66987 6.66092 2.5547C6.7567 2.44914 6.86207 2.35317 6.95785 2.2572C7.05364 2.16123 7.13027 2.09405 7.16858 2.05566C7.2069 2.01727 7.24521 1.96929 7.28352 1.91171C7.32184 1.85413 7.341 1.79655 7.35057 1.73896C7.36015 1.68138 7.36015 1.6238 7.35057 1.55662C7.341 1.49904 7.31226 1.44146 7.26437 1.39347C7.21648 1.34549 7.16858 1.3167 7.12069 1.3263C7.08238 1.33589 7.03448 1.34549 6.98659 1.36468C6.9387 1.38388 6.88123 1.41267 6.81418 1.44146C6.74713 1.47025 6.66092 1.47985 6.55556 1.47985C6.45977 1.47985 6.38314 1.45106 6.32567 1.40307C6.2682 1.35509 6.22031 1.2975 6.17241 1.23992C6.12452 1.18234 6.07663 1.12476 6.01916 1.07678C5.96169 1.02879 5.88506 1 5.77969 1C5.67433 1 5.5977 1.02879 5.54023 1.07678C5.48276 1.12476 5.42529 1.18234 5.36782 1.23992C5.31992 1.2975 5.26245 1.35509 5.20498 1.40307C5.14751 1.45106 5.08046 1.47985 4.99425 1.47985C4.88889 1.47985 4.80268 1.45106 4.74521 1.40307C4.68774 1.35509 4.63027 1.2975 4.58238 1.23992C4.53448 1.18234 4.48659 1.12476 4.42912 1.07678C4.37165 1.02879 4.29502 1 4.19923 1C4.10345 1 4.01724 1.02879 3.95977 1.07678C3.9023 1.12476 3.84483 1.18234 3.79693 1.23992C3.74904 1.2975 3.69157 1.35509 3.64368 1.40307C3.58621 1.45106 3.50958 1.47985 3.42337 1.47985C3.31801 1.47985 3.2318 1.47025 3.16475 1.44146C3.0977 1.41267 3.03065 1.38388 2.98276 1.36468C2.93487 1.34549 2.88697 1.3263 2.84866 1.3263C2.81034 1.3167 2.76245 1.34549 2.70498 1.39347C2.65709 1.44146 2.62835 1.49904 2.6092 1.55662C2.59004 1.6142 2.59004 1.67178 2.6092 1.73896C2.62835 1.79655 2.65709 1.85413 2.68582 1.91171ZM6.61303 7.01727C6.60345 6.98848 6.59387 6.91171 6.57471 6.75816C6.49808 6.18234 6.62261 5.7025 6.62261 5.7025C6.7567 4.95393 7.77203 4.66603 8.11686 4.58925C8.00192 4.45489 7.87739 4.32054 7.76245 4.20537C7.40805 3.85988 7.01533 3.57198 6.56513 3.32246H3.39464C2.94444 3.56238 2.54215 3.85988 2.19732 4.20537C2.04406 4.34933 1.90038 4.51248 1.7567 4.69482C1.61303 4.87716 1.48851 5.0691 1.37356 5.28983C1.25862 5.51056 1.17241 5.74088 1.10536 6C1.03831 6.24952 1 6.52783 1 6.81574C1 7.29559 1.07663 7.72745 1.22989 8.11132C1.38314 8.4952 1.62261 8.8119 1.94828 9.08061C2.27395 9.34933 2.68582 9.55086 3.19349 9.69482C3.47126 9.77159 3.77778 9.82917 4.12261 9.86756V8.78311C4.09387 8.35125 4.20881 8.1881 4.20881 8.1881C4.63985 7.00768 6.5364 7.01727 6.61303 7.01727Z" fill="#C5842B"/>
<path d="M6.63251 7.56433C5.57887 7.56433 4.7168 8.01539 4.7168 8.57201C4.7168 9.12863 5.56929 9.57969 6.63251 9.57969C7.68615 9.57969 8.54821 9.12863 8.54821 8.57201C8.53864 8.02498 7.68615 7.56433 6.63251 7.56433ZM9.07503 9.42613C9.01756 9.42613 8.95051 9.42613 8.89304 9.41654C8.89304 9.43573 8.89304 9.45493 8.88346 9.47412C8.89304 9.51251 8.90262 9.5509 8.90262 9.58928V9.82921H9.07503C10.1287 9.82921 10.9907 9.37815 10.9907 8.82153V8.41846C10.9907 8.96548 10.1383 9.42613 9.07503 9.42613Z" fill="#C5842B"/>
<path d="M6.63251 9.8963C5.57887 9.8963 4.72638 9.44525 4.7168 8.88863V9.2917C4.7168 9.84832 5.56929 10.2994 6.63251 10.2994C7.68615 10.2994 8.54821 9.84832 8.54821 9.2917V8.87903C8.53864 9.43565 7.68615 9.8963 6.63251 9.8963Z" fill="#C5842B"/>
<path d="M6.63251 10.5968C5.57887 10.5968 4.72638 10.1458 4.7168 9.58916V9.99223C4.7168 10.5488 5.56929 10.9999 6.63251 10.9999C7.68615 10.9999 8.54821 10.5488 8.54821 9.99223V9.58916C8.53864 10.1458 7.68615 10.5968 6.63251 10.5968ZM9.07503 7.31468C8.02139 7.31468 7.1689 6.86363 7.15933 6.30701V6.71008C7.15933 6.95 7.31258 7.17073 7.58078 7.34348C7.84898 7.41065 8.07887 7.50662 8.28001 7.63138C8.51948 7.68896 8.79726 7.72735 9.07503 7.72735C10.1287 7.72735 10.9907 7.2763 10.9907 6.71968V6.3166C10.9907 6.86363 10.1383 7.31468 9.07503 7.31468Z" fill="#C5842B"/>
<path d="M7.16895 5.99999C7.16895 6.55661 8.02144 7.00766 9.08465 7.00766C10.1383 7.00766 11.0004 6.55661 11.0004 5.99999C11.0004 5.44337 10.1479 4.99231 9.08465 4.99231C8.02144 4.99231 7.16895 5.44337 7.16895 5.99999ZM9.07508 8.01534C8.95055 8.01534 8.81646 8.00575 8.70151 7.99615C8.7973 8.12091 8.86435 8.26486 8.89308 8.41841C8.95055 8.41841 9.0176 8.42801 9.07508 8.42801C10.1287 8.42801 10.9908 7.97695 10.9908 7.42033V7.01726C10.9908 7.56429 10.1383 8.01534 9.07508 8.01534Z" fill="#C5842B"/>
<path d="M9.07438 8.71593C9.01691 8.71593 8.94986 8.71593 8.89239 8.70633C8.89239 8.72553 8.89239 8.74472 8.88281 8.76391C8.89239 8.8023 8.90197 8.84069 8.90197 8.87908V9.119H9.07438C10.128 9.119 10.9901 8.66794 10.9901 8.11132V7.70825C10.9901 8.26487 10.1376 8.71593 9.07438 8.71593Z" fill="#C5842B"/>
</svg>
