<?xml version="1.0" standalone="no"?><!DOCTYPE svg PUBLIC "-//W3C//DTD SVG 1.1//EN" "http://www.w3.org/Graphics/SVG/1.1/DTD/svg11.dtd"><svg t="1747883625478" class="icon" viewBox="0 0 1024 1024" version="1.1" xmlns="http://www.w3.org/2000/svg" p-id="14569" xmlns:xlink="http://www.w3.org/1999/xlink" width="200" height="200"><path d="M435.626667 619.093333H183.978667V262.656h488.533333v86.016s69.12-4.266667 104.789333 8.362667V264.789333S775.253333 153.6 670.378667 153.6H190.293333c0 2.133333-104.789333 10.410667-104.789333 117.418667V612.693333S79.189333 726.016 188.245333 726.016c108.970667 0 167.68 2.048 167.68 2.048s10.496 33.621333-65.024 50.346667c-79.616 14.677333-150.869333 14.677333-161.365333 69.12H552.96S429.312 757.504 435.626667 619.093333z" p-id="14570"></path><path d="M714.410667 399.018667a224.597333 224.597333 0 0 0-224.341334 224.341333 224.597333 224.597333 0 0 0 224.341334 224.341333A224.597333 224.597333 0 0 0 938.666667 623.274667a224.597333 224.597333 0 0 0-224.426667-224.256z m-35.669334 54.528a181.76 181.76 0 0 1 33.621334-4.266667c12.544 0 25.088 2.133333 37.717333 4.266667l-2.133333 2.048c12.544 35.669333 20.992 69.205333 25.173333 102.741333a422.570667 422.570667 0 0 1-115.285333 0 487.253333 487.253333 0 0 1 25.088-102.741333l-4.181334-2.048zM542.549333 656.896a162.986667 162.986667 0 0 1-4.266666-33.536c0-18.858667 4.266667-37.717333 10.496-56.576 18.858667 10.410667 39.850667 16.725333 58.709333 23.04-2.389333 28.586667-1.706667 57.429333 2.048 85.930667-41.813333-8.362667-66.986667-18.858667-66.986667-18.858667z m20.906667 50.346667c18.773333 6.229333 37.717333 12.544 54.528 16.725333 4.181333 16.810667 8.362667 33.536 14.677333 52.394667a157.610667 157.610667 0 0 1-69.12-69.12h-0.085333z m50.346667-159.317334a223.744 223.744 0 0 1-46.08-16.810666c16.298667-26.538667 39.424-48.298667 66.986666-62.890667-10.24 25.6-17.237333 52.309333-20.906666 79.701333z m134.144 245.248a183.466667 183.466667 0 0 1-33.536 4.266667c-10.496 0-20.906667-2.218667-31.488-2.218667 0-2.048-10.410667-25.088-18.773334-62.805333 37.632 4.181333 71.253333 4.181333 102.656 0-8.362667 33.450667-16.725333 54.442667-18.858666 60.757333z m25.173333-109.056c-38.997333 5.290667-78.506667 5.290667-117.418667 0-2.048-25.088-4.181333-52.394667-2.048-81.749333 46.08 8.362667 87.978667 6.314667 123.733334 0 0 29.354667 0 56.661333-4.266667 81.749333z m87.978667-150.954666c-14.592 6.314667-29.269333 10.496-43.946667 14.762666a652.373333 652.373333 0 0 0-18.944-75.52c25.173333 14.677333 48.298667 35.669333 62.890667 60.757334z m-62.890667 241.152c6.314667-16.810667 10.581333-33.536 14.762667-50.346667 20.906667-4.266667 37.717333-10.496 52.394666-16.810667a148.48 148.48 0 0 1-67.157333 67.157334z m86.016-117.418667a358.4 358.4 0 0 1-62.890667 18.773333c4.181333-31.317333 4.181333-58.624 2.133334-85.845333 19.370667-6.4 38.229333-14.08 56.576-23.04 6.314667 16.725333 10.410667 35.584 10.410666 56.576-2.048 12.544-4.096 23.04-6.229333 33.536z" p-id="14571" fill="currentColor"></path></svg>